<svg viewBox="0 0 14 18" fill="none" xmlns="http://www.w3.org/2000/svg">
<path d="M9.75169 16C9.33409 17.1832 8.20909 18 6.92248 18C5.63307 18 4.50959 17.1802 4.0932 16H2.5C1.11929 16 0 14.8807 0 13.5C0 13.1502 0.0734052 12.8043 0.215471 12.4847L0.922476 10.8939V8C0.922476 5.38756 2.59209 3.16508 4.92248 2.34141V2C4.92248 0.89543 5.81791 0 6.92248 0C8.02705 0 8.92248 0.89543 8.92248 2V2.34141C11.2529 3.16508 12.9225 5.38756 12.9225 8V10.8939L13.6295 12.4847C14.1902 13.7464 13.622 15.2238 12.3603 15.7845C12.0407 15.9266 11.6947 16 11.345 16H9.75169ZM8.65537 16H5.18956C5.53827 16.6033 6.19039 17 6.92248 17C7.65326 17 8.30607 16.6045 8.65537 16ZM7.92248 2.08296V2C7.92248 1.44772 7.47476 1 6.92248 1C6.37019 1 5.92248 1.44772 5.92248 2V2.08296C6.24768 2.0284 6.58176 2 6.92248 2C7.26319 2 7.59727 2.0284 7.92248 2.08296ZM6.92248 3C4.16105 3 1.92248 5.23858 1.92248 8V11L1.87938 11.2031L1.12928 12.8908C1.04404 13.0826 1 13.2901 1 13.5C1 14.3284 1.67157 15 2.5 15H11.345C11.5548 15 11.7624 14.956 11.9542 14.8707C12.7112 14.5343 13.0521 13.6478 12.7157 12.8908L11.9656 11.2031L11.9225 11V8C11.9225 5.23858 9.6839 3 6.92248 3Z" fill="currentColor"/>
</svg>
