<svg viewBox="0 0 10 14" fill="none" xmlns="http://www.w3.org/2000/svg">
<path d="M9.16667 2.08333C9.16667 1.39298 8.60702 0.833333 7.91667 0.833333H2.08333C1.39298 0.833333 0.833333 1.39298 0.833333 2.08333V12.2208L4.80005 10.0511C4.92464 9.98296 5.07536 9.98296 5.19995 10.0511L9.16667 12.2208V2.08333ZM0.616615 13.2892C0.338947 13.441 0 13.2401 0 12.9236V2.08333C0 0.93274 0.93274 0 2.08333 0H7.91667C9.06726 0 10 0.93274 10 2.08333V12.9236C10 13.2401 9.66105 13.441 9.38338 13.2892L5 10.8916L0.616615 13.2892Z" fill="currentColor"/>
</svg>
