<svg viewBox="0 0 14 14" fill="none" xmlns="http://www.w3.org/2000/svg">
<path d="M6.66667 13.3333C2.98477 13.3333 0 10.3486 0 6.66667C0 2.98477 2.98477 0 6.66667 0C10.3486 0 13.3333 2.98477 13.3333 6.66667C13.3333 10.3486 10.3486 13.3333 6.66667 13.3333ZM6.66667 12.6667C9.98038 12.6667 12.6667 9.98038 12.6667 6.66667C12.6667 3.35296 9.98038 0.666667 6.66667 0.666667C3.35296 0.666667 0.666667 3.35296 0.666667 6.66667C0.666667 9.98038 3.35296 12.6667 6.66667 12.6667ZM9.19375 8.06209C9.34355 8.16909 9.37825 8.37728 9.27124 8.52708C9.16424 8.67688 8.95606 8.71158 8.80625 8.60458L6.47292 6.93791C6.41044 6.89328 6.36528 6.82845 6.34508 6.75437L5.34508 3.08771C5.29664 2.9101 5.40135 2.72685 5.57896 2.67841C5.75657 2.62997 5.93982 2.73469 5.98825 2.91229L6.95702 6.46443L9.19375 8.06209Z" fill="currentColor"/>
</svg>
