<svg viewBox="0 0 12 12" fill="none" xmlns="http://www.w3.org/2000/svg">
<path d="M5.83333 5.00838L10.6709 0.170854C10.8987 -0.0569515 11.268 -0.0569515 11.4958 0.170854C11.7236 0.39866 11.7236 0.768006 11.4958 0.995812L6.65829 5.83333L11.4958 10.6709C11.7236 10.8987 11.7236 11.268 11.4958 11.4958C11.268 11.7236 10.8987 11.7236 10.6709 11.4958L5.83333 6.65829L0.995812 11.4958C0.768006 11.7236 0.39866 11.7236 0.170854 11.4958C-0.0569515 11.268 -0.0569515 10.8987 0.170854 10.6709L5.00838 5.83333L0.170854 0.995812C-0.0569515 0.768006 -0.0569515 0.39866 0.170854 0.170854C0.39866 -0.0569515 0.768006 -0.0569515 0.995812 0.170854L5.83333 5.00838Z" fill="currentColor"/>
</svg>
