<svg viewBox="0 0 27 27" fill="none" xmlns="http://www.w3.org/2000/svg">
<path d="M15.9578 15.5672C15.9254 15.6539 15.8744 15.7351 15.8047 15.8047C15.7351 15.8744 15.6539 15.9254 15.5672 15.9578L8.91426 18.619C8.37005 18.8367 7.83 18.2966 8.04768 17.7524L10.7089 11.0994C10.7413 11.0128 10.7923 10.9316 10.8619 10.8619C10.9316 10.7923 11.0128 10.7413 11.0994 10.7089L17.7524 8.04768C18.2966 7.83 18.8367 8.37005 18.619 8.91426L15.9578 15.5672ZM12.5196 11.5768L15.0898 14.147L16.8033 9.86337L12.5196 11.5768ZM14.147 15.0898L11.5768 12.5196L9.86337 16.8033L14.147 15.0898ZM13.3333 26.6667C5.96954 26.6667 0 20.6971 0 13.3333C0 5.96954 5.96954 0 13.3333 0C20.6971 0 26.6667 5.96954 26.6667 13.3333C26.6667 20.6971 20.6971 26.6667 13.3333 26.6667ZM13.3333 25.3333C19.9608 25.3333 25.3333 19.9608 25.3333 13.3333C25.3333 6.70592 19.9608 1.33333 13.3333 1.33333C6.70592 1.33333 1.33333 6.70592 1.33333 13.3333C1.33333 19.9608 6.70592 25.3333 13.3333 25.3333Z" fill="currentColor"/>
</svg>
