<svg viewBox="0 0 12 10" fill="none" xmlns="http://www.w3.org/2000/svg">
<path d="M10.8619 2L9.43096 0.569035C9.30079 0.438861 9.30079 0.227806 9.43096 0.0976311C9.56114 -0.0325437 9.77219 -0.0325437 9.90237 0.0976311L11.9024 2.09763C12.0325 2.22781 12.0325 2.43886 11.9024 2.56904L9.90237 4.56904C9.77219 4.69921 9.56114 4.69921 9.43096 4.56904C9.30079 4.43886 9.30079 4.22781 9.43096 4.09763L10.8619 2.66667H1.66667C1.11438 2.66667 0.666667 3.11438 0.666667 3.66667V7.66667C0.666667 8.21895 1.11438 8.66667 1.66667 8.66667H5C5.1841 8.66667 5.33333 8.8159 5.33333 9C5.33333 9.18409 5.1841 9.33333 5 9.33333H1.66667C0.746192 9.33333 0 8.58714 0 7.66667V3.66667C0 2.74619 0.746192 2 1.66667 2H10.8619Z" fill="currentColor"/>
</svg>
