<svg viewBox="0 0 13 14" fill="none" xmlns="http://www.w3.org/2000/svg">
<path d="M6.16683 9.74424V0.750163C6.16683 0.520044 6.35338 0.333496 6.5835 0.333496C6.81361 0.333496 7.00016 0.520044 7.00016 0.750163V9.74424L9.6222 7.1222C9.78492 6.95948 10.0487 6.95948 10.2115 7.1222C10.3742 7.28492 10.3742 7.54874 10.2115 7.71146L6.87812 11.0448C6.71541 11.2075 6.45159 11.2075 6.28887 11.0448L2.95553 7.71146C2.79282 7.54874 2.79282 7.28492 2.95553 7.1222C3.11825 6.95948 3.38207 6.95948 3.54479 7.1222L6.16683 9.74424ZM0.750163 13.6668C0.520044 13.6668 0.333496 13.4803 0.333496 13.2502C0.333496 13.02 0.520044 12.8335 0.750163 12.8335H12.4168C12.6469 12.8335 12.8335 13.02 12.8335 13.2502C12.8335 13.4803 12.6469 13.6668 12.4168 13.6668H0.750163Z" fill="currentColor"/>
</svg>
