<svg viewBox="0 0 12 16" fill="none" xmlns="http://www.w3.org/2000/svg">
<path d="M6.66667 1.67279H11.25C11.5934 1.67279 11.7893 2.06478 11.5833 2.33946L9.27083 5.42279L11.5833 8.50613C11.7893 8.78081 11.5934 9.17279 11.25 9.17279H7.08333C6.39298 9.17279 5.83333 8.61315 5.83333 7.92279C5.83333 7.69267 5.64678 7.50613 5.41667 7.50613H0.833333V14.5895C0.833333 14.8196 0.646785 15.0061 0.416667 15.0061C0.186548 15.0061 0 14.8196 0 14.5895V1.25C0 0.559644 0.559644 0 1.25 0H5.41667C6.10703 0 6.66667 0.559644 6.66667 1.25V1.67279ZM6.66667 2.50613V3.75613C6.66667 3.98625 6.48012 4.17279 6.25 4.17279C6.01988 4.17279 5.83334 3.98625 5.83334 3.75613V2.09111L5.83333 2.08946L5.83334 2.0878V1.25C5.83334 1.01988 5.64679 0.833333 5.41667 0.833333H1.25C1.01988 0.833333 0.833333 1.01988 0.833333 1.25V6.67279H5.41667C6.10702 6.67279 6.66667 7.23244 6.66667 7.92279C6.66667 8.15291 6.85321 8.33946 7.08333 8.33946H10.4167L8.41667 5.67279C8.30555 5.52465 8.30555 5.32094 8.41667 5.17279L10.4167 2.50613H6.66667Z" fill="currentColor"/>
</svg>
