<svg viewBox="0 0 24 24" fill="none" xmlns="http://www.w3.org/2000/svg">
<path d="M22.6667 10.3146V20.6667C22.6667 22.5076 21.1743 24 19.3334 24H15.3334C14.9652 24 14.6667 23.7015 14.6667 23.3333V15.3333C14.6667 14.9651 14.3682 14.6667 14 14.6667H10C9.63183 14.6667 9.33335 14.9651 9.33335 15.3333V23.3333C9.33335 23.7015 9.03488 24 8.66669 24H4.66669C2.82574 24 1.33335 22.5076 1.33335 20.6667V10.3146L1.09049 10.5146C0.806274 10.7487 0.386126 10.708 0.152065 10.4238C-0.0819955 10.1396 -0.0413362 9.71944 0.242881 9.48538L11.5762 0.152047C11.8224 -0.0506822 12.1777 -0.0506822 12.4238 0.152047L23.7572 9.48538C24.0414 9.71944 24.082 10.1396 23.848 10.4238C23.6139 10.708 23.1938 10.7487 22.9095 10.5146L22.6667 10.3146ZM21.3423 9.22393L12 1.5303L2.65775 9.22393C2.66363 9.25953 2.66669 9.29607 2.66669 9.33333V20.6667C2.66669 21.7712 3.56212 22.6667 4.66669 22.6667H8.00002V15.3333C8.00002 14.2288 8.89545 13.3333 10 13.3333H14C15.1046 13.3333 16 14.2288 16 15.3333V22.6667H19.3334C20.4379 22.6667 21.3334 21.7712 21.3334 20.6667V9.33333C21.3334 9.29607 21.3364 9.25953 21.3423 9.22393Z" fill="currentColor"/>
</svg>
