<svg viewBox="0 0 18 11" fill="none" xmlns="http://www.w3.org/2000/svg">
<path d="M0.5 1C0.223858 1 0 0.776142 0 0.5C0 0.223858 0.223858 0 0.5 0H17.5C17.7761 0 18 0.223858 18 0.5C18 0.776142 17.7761 1 17.5 1H0.5ZM0.5 6C0.223858 6 0 5.77614 0 5.5C0 5.22386 0.223858 5 0.5 5H17.5C17.7761 5 18 5.22386 18 5.5C18 5.77614 17.7761 6 17.5 6H0.5ZM0.5 11C0.223858 11 0 10.7761 0 10.5C0 10.2239 0.223858 10 0.5 10H17.5C17.7761 10 18 10.2239 18 10.5C18 10.7761 17.7761 11 17.5 11H0.5Z" fill="currentColor"/>
</svg>
