<svg viewBox="0 0 11 11" fill="none" xmlns="http://www.w3.org/2000/svg">
<path d="M1.15745 1.94963C2.14152 0.732323 3.62888 0 5.24079 0C8.14028 0 10.4908 2.3505 10.4908 5.25C10.4908 8.14949 8.14028 10.5 5.24079 10.5C2.46147 10.5 0.168078 8.33388 0.00054475 5.57261C-0.00921061 5.41182 0.113225 5.27357 0.274012 5.26381C0.4348 5.25406 0.573052 5.37649 0.582808 5.53728C0.731688 7.99112 2.77037 9.91667 5.24079 9.91667C7.81811 9.91667 9.90745 7.82733 9.90745 5.25C9.90745 2.67267 7.81811 0.583333 5.24079 0.583333C3.80029 0.583333 2.47226 1.24083 1.59743 2.33333H3.19912C3.3602 2.33333 3.49079 2.46392 3.49079 2.625C3.49079 2.78608 3.3602 2.91667 3.19912 2.91667H0.865785C0.704702 2.91667 0.574119 2.78608 0.574119 2.625V0.291667C0.574119 0.130584 0.704702 0 0.865785 0C1.02687 0 1.15745 0.130584 1.15745 0.291667V1.94963Z" fill="currentColor"/>
</svg>
