<svg viewBox="0 0 15 15" fill="none" xmlns="http://www.w3.org/2000/svg">
<path d="M11.6662 11.0769L14.878 14.2887C15.0407 14.4514 15.0407 14.7152 14.878 14.878C14.7152 15.0407 14.4514 15.0407 14.2887 14.878L11.0769 11.6662C9.90163 12.7037 8.35767 13.3333 6.66667 13.3333C2.98477 13.3333 0 10.3486 0 6.66667C0 2.98477 2.98477 0 6.66667 0C10.3486 0 13.3333 2.98477 13.3333 6.66667C13.3333 8.35767 12.7037 9.90163 11.6662 11.0769ZM6.66667 12.5C9.88833 12.5 12.5 9.88833 12.5 6.66667C12.5 3.44501 9.88833 0.833333 6.66667 0.833333C3.44501 0.833333 0.833333 3.44501 0.833333 6.66667C0.833333 9.88833 3.44501 12.5 6.66667 12.5Z" fill="currentColor"/>
</svg>
