<svg viewBox="0 0 27 24" fill="none" xmlns="http://www.w3.org/2000/svg">
<path d="M25.3333 7.33333C24.776 6.91467 24.084 6.66667 23.3333 6.66667H22.6C22.2907 5.14533 20.9453 4 19.3333 4H7.33333C5.72133 4 4.376 5.14533 4.06667 6.66667H3.33333C2.228 6.66667 1.33333 5.772 1.33333 4.66667V3.33333C1.33333 2.228 2.228 1.33333 3.33333 1.33333H23.3333C24.4387 1.33333 25.3333 2.228 25.3333 3.33333V7.33333ZM5.44667 6.66667C5.72133 5.88933 6.46267 5.33333 7.33333 5.33333H19.3333C20.204 5.33333 20.9453 5.88933 21.22 6.66667H5.44667ZM25.3333 12H20.6667C18.8253 12 17.3333 13.492 17.3333 15.3333C17.3333 17.1747 18.8253 18.6667 20.6667 18.6667H25.3333V20.6667C25.3333 21.7707 24.4387 22.6667 23.3333 22.6667H3.33333C2.228 22.6667 1.33333 21.7707 1.33333 20.6667V7.33333C1.89067 7.752 2.58267 8 3.33333 8H23.3333C24.4387 8 25.3333 8.896 25.3333 10V12ZM25.3333 17.3333H20.6667C19.5613 17.3333 18.6667 16.4373 18.6667 15.3333C18.6667 14.2293 19.5613 13.3333 20.6667 13.3333H25.3333V17.3333ZM23.3333 0H3.33333C1.492 0 0 1.492 0 3.33333V20.6667C0 22.508 1.492 24 3.33333 24H23.3333C25.1747 24 26.6667 22.508 26.6667 20.6667V3.33333C26.6667 1.492 25.1747 0 23.3333 0Z" fill="currentColor"/>
</svg>
