<svg width="77" height="24" viewBox="0 0 77 24" fill="none" xmlns="http://www.w3.org/2000/svg">
<path d="M9.68001 5.61607C9.80801 5.68007 10 5.78407 10.256 5.92807C10.528 6.05607 10.744 6.19207 10.904 6.33607C11.08 6.46407 11.216 6.62407 11.312 6.81607C11.808 7.55207 12.224 8.41607 12.56 9.40807C12.896 10.4001 13.064 11.3921 13.064 12.3841C13.064 13.0081 12.976 13.6321 12.8 14.2561V15.1921C12.736 15.3521 12.608 15.5441 12.416 15.7681C12.224 15.9921 12.096 16.1361 12.032 16.2001C11.888 16.3921 11.704 16.6961 11.48 17.1121C11.288 17.4801 11.104 17.7841 10.928 18.0241C10.768 18.2641 10.576 18.4721 10.352 18.6481C9.77601 19.1601 9.11201 19.5601 8.36001 19.8481C7.60801 20.1361 6.59201 20.4561 5.31201 20.8081C4.19201 21.1441 3.21601 21.3121 2.38401 21.3121C1.77601 21.3121 1.20001 21.2321 0.656012 21.0721C0.656012 21.0081 0.640012 20.9361 0.608012 20.8561C0.592012 20.7761 0.584012 20.7041 0.584012 20.6401C0.696012 20.6401 0.912012 20.5761 1.23201 20.4481C1.55201 20.3041 1.72001 20.2001 1.73601 20.1361V9.52807C1.73601 9.09607 1.74401 8.58407 1.76001 7.99207C1.77601 7.40007 1.79201 6.94407 1.80801 6.62407C1.84001 6.20807 1.85601 5.89607 1.85601 5.68807C1.74401 5.64007 1.60001 5.59207 1.42401 5.54407L1.35201 5.52007C1.27201 5.52007 1.15201 5.54407 0.992012 5.59207C0.832012 5.64007 0.720012 5.64807 0.656012 5.61607C0.464012 5.55207 0.336012 5.46407 0.272012 5.35207C0.224012 5.22407 0.200012 5.00807 0.200012 4.70407C0.376012 4.65607 0.592012 4.63207 0.848012 4.63207L1.68801 4.65607C1.73601 4.64007 1.86401 4.63207 2.07201 4.63207C2.28001 4.61607 2.42401 4.58407 2.50401 4.53607C2.72801 4.55207 3.16801 4.56007 3.82401 4.56007C4.88001 4.56007 5.72001 4.59207 6.34401 4.65607C6.48801 4.65607 6.86401 4.61607 7.47201 4.53607C7.74401 4.56807 7.99201 4.64007 8.21601 4.75207C8.44001 4.86407 8.72001 5.02407 9.05601 5.23207C9.37601 5.44007 9.58401 5.56807 9.68001 5.61607ZM3.46401 6.24007C3.54401 6.16007 3.61601 6.04007 3.68001 5.88007C3.74401 5.70407 3.76001 5.56807 3.72801 5.47207C3.72801 5.47207 3.68001 5.45607 3.58401 5.42407C3.53601 5.56807 3.49601 5.70407 3.46401 5.83207C3.43201 5.96007 3.39201 6.09607 3.34401 6.24007L3.41601 6.31207L3.46401 6.24007ZM6.80001 5.54407C6.92801 5.54407 7.04001 5.56007 7.13601 5.59207C7.23201 5.60807 7.32801 5.61607 7.42401 5.61607V5.47207L7.35201 5.42407H6.84801L6.80001 5.54407ZM10.232 13.3441C10.28 13.1201 10.304 12.9041 10.304 12.6961C10.304 12.2321 10.232 11.7841 10.088 11.3521C9.96001 10.9041 9.88001 10.6321 9.84801 10.5361C9.81601 10.4241 9.78401 10.3281 9.75201 10.2481C9.72001 10.1681 9.69601 10.0881 9.68001 10.0081C9.44001 9.20807 9.20801 8.59207 8.98401 8.16007C8.76001 7.72807 8.38401 7.35207 7.85601 7.03207C7.64801 6.96807 7.45601 6.90407 7.28001 6.84007C7.12001 6.76007 6.97601 6.69607 6.84801 6.64807C6.76801 6.60007 6.58401 6.50407 6.29601 6.36007C6.02401 6.21607 5.75201 6.09607 5.48001 6.00007C5.22401 5.90407 4.96001 5.84007 4.68801 5.80807C4.68801 5.87207 4.67201 5.94407 4.64001 6.02407C4.62401 6.10407 4.61601 6.17607 4.61601 6.24007C4.61601 9.21607 4.60801 11.4481 4.59201 12.9361L4.56801 19.6321H4.47201C4.44001 19.5681 4.40001 19.5201 4.35201 19.4881V20.1361C5.12001 20.1041 5.77601 19.8881 6.32001 19.4881C6.88001 19.0721 7.39201 18.5361 7.85601 17.8801C8.52801 16.9841 9.04001 16.2241 9.39201 15.6001C9.76001 14.9601 10.04 14.2081 10.232 13.3441ZM9.68001 7.65607C9.50401 7.19207 9.12801 6.80807 8.55201 6.50407C7.99201 6.20007 7.36001 5.96807 6.65601 5.80807C6.89601 6.03207 7.35201 6.27207 8.02401 6.52807C8.52001 6.72007 8.83201 6.86407 8.96001 6.96007C9.08801 7.02407 9.22401 7.17607 9.36801 7.41607C9.51201 7.64007 9.61601 7.76807 9.68001 7.80007C9.68001 7.76807 9.68001 7.75207 9.68001 7.75207C9.69601 7.73607 9.69601 7.70407 9.68001 7.65607ZM11.648 10.4161H11.912C11.88 9.82407 11.664 9.18407 11.264 8.49607C10.864 7.80807 10.376 7.21607 9.80001 6.72007C9.22401 6.20807 8.67201 5.92007 8.14401 5.85607L8.07201 5.92807C8.12001 5.96007 8.14401 6.00807 8.14401 6.07207C8.86401 6.34407 9.54401 6.90407 10.184 7.75207C10.84 8.58407 11.328 9.44807 11.648 10.3441V10.4161ZM2.36001 6.81607C2.36001 7.04007 2.39201 7.19207 2.45601 7.27207C2.45601 7.06407 2.42401 6.91207 2.36001 6.81607ZM3.20001 7.65607C3.31201 7.48007 3.36801 7.30407 3.36801 7.12807C3.36801 7.03207 3.36001 6.96007 3.34401 6.91207H3.20001C3.16801 7.02407 3.14401 7.16807 3.12801 7.34407C3.11201 7.52007 3.12001 7.62407 3.15201 7.65607V7.70407L3.20001 7.65607ZM2.96001 11.3521C2.97601 11.2721 2.99201 11.1761 3.00801 11.0641C3.02401 10.9361 3.04801 10.8001 3.08001 10.6561H2.81601C2.81601 10.7841 2.82401 10.9121 2.84001 11.0401C2.87201 11.1681 2.88801 11.2961 2.88801 11.4241L2.96001 11.3521ZM2.81601 11.8081C2.84801 11.7601 2.86401 11.7201 2.86401 11.6881C2.86401 11.6561 2.84801 11.6161 2.81601 11.5681C2.81601 11.6321 2.80001 11.6961 2.76801 11.7601C2.75201 11.8081 2.74401 11.8641 2.74401 11.9281H2.81601V11.8081ZM4.23201 17.3761C4.21601 17.4721 4.20801 17.6401 4.20801 17.8801C4.20801 18.2961 4.25601 18.6001 4.35201 18.7921C4.38401 18.4081 4.40001 18.1681 4.40001 18.0721C4.40001 17.7681 4.34401 17.5361 4.23201 17.3761Z" fill="#F3E9D8"/>
<path d="M27.0258 19.9921C27.0738 20.1201 27.1298 20.1841 27.1938 20.1841H27.2658L27.1938 20.2321C27.0498 20.3761 26.6338 20.5121 25.9458 20.6401C25.2738 20.7681 24.6418 20.8321 24.0498 20.8321C23.5058 20.8321 23.1698 20.7761 23.0418 20.6641C22.7698 19.9441 22.5938 19.5441 22.5138 19.4641C21.6978 19.9441 20.8018 20.1841 19.8258 20.1841C18.9298 20.1841 18.1778 19.9761 17.5698 19.5601C16.9618 19.1281 16.6578 18.5201 16.6578 17.7361C16.6578 17.4321 16.7058 17.1121 16.8018 16.7761C17.2018 15.4161 17.9298 14.3201 18.9858 13.4881C20.0418 12.6401 21.4418 12.2561 23.1858 12.3361L23.2818 12.2881C23.3138 11.7441 23.3298 11.3361 23.3298 11.0641C23.3298 10.5521 23.2738 10.1601 23.1618 9.88807C23.1138 9.87207 22.7378 9.72807 22.0338 9.45607C21.7458 9.40807 21.4738 9.38407 21.2178 9.38407C20.6898 9.38407 20.2338 9.47207 19.8498 9.64807C19.4658 9.82407 19.0098 10.0801 18.4818 10.4161C17.9218 10.7681 17.5378 10.9921 17.3298 11.0881L16.8498 10.8721C17.5218 10.2001 18.2418 9.62407 19.0098 9.14407C19.7778 8.66407 20.6658 8.27207 21.6738 7.96807C21.8498 7.90407 22.0498 7.87207 22.2738 7.87207C22.4338 7.87207 22.6898 7.90407 23.0418 7.96807C23.1058 7.98407 23.1938 8.00007 23.3058 8.01607C23.4178 8.03207 23.5538 8.04007 23.7138 8.04007C23.9378 8.21607 24.2658 8.42407 24.6978 8.66407C25.0978 8.90407 25.4018 9.10407 25.6098 9.26407C25.8338 9.42407 26.0098 9.64007 26.1378 9.91207C26.2978 10.2961 26.3778 10.7441 26.3778 11.2561C26.3778 11.6081 26.3378 12.0001 26.2578 12.4321C26.1938 12.8641 26.1218 13.2641 26.0418 13.6321C25.9618 13.9841 25.9218 14.1681 25.9218 14.1841C25.8098 14.6801 25.7538 15.2161 25.7538 15.7921C25.7538 16.2881 25.8178 17.0641 25.9458 18.1201C26.0418 18.9681 26.0978 19.5841 26.1138 19.9681L27.0258 19.9921ZM24.4098 12.2641C24.3938 12.2961 24.3618 12.3681 24.3138 12.4801C24.2658 12.5921 24.2578 12.7361 24.2898 12.9121L24.4098 12.2641ZM23.1618 18.1681C23.2258 18.0561 23.2578 17.8881 23.2578 17.6641C23.2578 17.4881 23.2418 17.2801 23.2098 17.0401C23.1938 16.8001 23.1778 16.6241 23.1618 16.5121C23.1458 16.3521 23.1378 16.1201 23.1378 15.8161V14.9041C23.1378 14.2001 23.0658 13.6561 22.9218 13.2721H22.5378C22.3138 13.4321 22.1458 13.5441 22.0338 13.6081C21.7778 13.7681 21.5858 13.8961 21.4578 13.9921C20.7858 14.5201 20.2978 15.0801 19.9938 15.6721C19.7058 16.2481 19.5618 16.9201 19.5618 17.6881C19.5618 18.1361 19.6098 18.6401 19.7058 19.2001C19.7698 19.2321 19.8418 19.2801 19.9218 19.3441C20.0018 19.3921 20.0898 19.4241 20.1858 19.4401C20.2818 19.4561 20.4258 19.4641 20.6178 19.4641C20.7138 19.4161 21.0018 19.3041 21.4818 19.1281C21.9458 18.9841 22.3218 18.8401 22.6098 18.6961C22.8978 18.5521 23.0818 18.3761 23.1618 18.1681ZM17.5938 16.1041H17.4258C17.4578 16.1841 17.4738 16.2401 17.4738 16.2721C17.4738 16.2881 17.4818 16.3041 17.4978 16.3201C17.5298 16.3201 17.5698 16.3361 17.6178 16.3681L17.5938 16.1041ZM18.4338 17.5921C18.3858 17.9281 18.3618 18.1441 18.3618 18.2401C18.3618 18.4641 18.3938 18.6161 18.4578 18.6961L18.4818 17.9521C18.4818 17.7601 18.4658 17.6401 18.4338 17.5921ZM25.0338 17.5921H24.9618C24.9618 17.7201 24.9538 17.8561 24.9378 18.0001C24.9218 18.1281 24.9138 18.2481 24.9138 18.3601C24.9138 18.5041 24.9378 18.6481 24.9858 18.7921H25.0818L25.0338 17.5921ZM17.6418 18.8641H17.3298C17.3778 18.8961 17.4178 18.9281 17.4498 18.9601C17.4978 18.9761 17.5698 18.9921 17.6658 19.0081L17.6418 18.8641ZM25.1058 19.1041H25.0098V19.2241H25.1058V19.1041ZM18.7698 19.7041C18.6578 19.7041 18.4818 19.6641 18.2418 19.5841C18.2738 19.6481 18.3058 19.6961 18.3378 19.7281C18.3698 19.7601 18.3858 19.7921 18.3858 19.8241H18.7698V19.7041ZM23.6658 19.6801C23.7458 19.7601 23.7938 19.8161 23.8098 19.8481C23.8418 19.8641 23.8738 19.8321 23.9058 19.7521H23.8338C23.8178 19.7361 23.8018 19.7281 23.7858 19.7281C23.7698 19.7281 23.7298 19.7121 23.6658 19.6801Z" fill="#F3E9D8"/>
<path d="M51.9969 11.2561C52.3489 11.4001 52.6689 11.5521 52.9569 11.7121C53.2449 11.8721 53.3009 11.9681 53.1249 12.0001C53.0129 12.0161 52.6209 12.2081 51.9489 12.5761C51.2129 12.9761 50.5649 13.3041 50.0049 13.5601C49.4609 13.8161 49.0129 13.9521 48.6609 13.9681C48.0689 13.4881 47.3809 12.6561 46.5969 11.4721C45.8129 10.2881 45.2689 9.29607 44.9649 8.49607C44.7409 7.84007 44.5249 7.32007 44.3169 6.93607C44.1089 6.55207 43.7809 6.00807 43.3329 5.30407C43.2049 5.12807 42.8449 4.68807 42.2529 3.98407C41.8049 3.47207 41.4449 3.04807 41.1729 2.71207C40.9169 2.37607 40.7009 2.03207 40.5249 1.68007C41.4209 1.77607 42.1649 2.12007 42.7569 2.71207L43.7889 3.74407C44.4769 4.43207 45.0369 5.01607 45.4689 5.49607C45.9169 5.96007 46.3809 6.49607 46.8609 7.10407C47.8689 8.33607 48.7489 9.20807 49.5009 9.72007C49.5809 9.78407 49.8929 10.0081 50.4369 10.3921C50.9969 10.7601 51.5169 11.0481 51.9969 11.2561ZM37.7169 2.40007C37.9729 2.43207 38.3329 2.60007 38.7969 2.90407C39.2609 3.19207 39.6769 3.52807 40.0449 3.91207C40.4129 4.28007 40.6049 4.60007 40.6209 4.87207C40.2529 5.27207 39.7649 5.88807 39.1569 6.72007C38.9009 7.10407 38.7009 7.38407 38.5569 7.56007C38.4129 7.64007 38.1329 7.84807 37.7169 8.18407L37.0209 8.88007C36.0929 9.80807 35.3889 10.4481 34.9089 10.8001C34.7489 10.9441 34.4929 11.0961 34.1409 11.2561C33.9489 11.3201 33.7569 11.4161 33.5649 11.5441C33.3409 11.7041 33.1009 11.9281 32.8449 12.2161C32.4929 12.5681 32.1729 12.8321 31.8849 13.0081C31.6129 13.1841 31.2609 13.2801 30.8289 13.2961C30.7969 13.2641 30.7729 13.2161 30.7569 13.1521C30.7409 13.0881 30.7249 13.0321 30.7089 12.9841C31.5729 12.4241 32.2049 11.9121 32.6049 11.4481C33.0209 10.9681 33.4849 10.2961 33.9969 9.43207L34.7409 8.20807C34.8849 7.95207 35.0209 7.72807 35.1489 7.53607C35.2769 7.34407 35.3889 7.17607 35.4849 7.03207C36.0449 6.18407 36.4689 5.44007 36.7569 4.80007C37.0609 4.16007 37.2849 3.39207 37.4289 2.49607L37.7169 2.40007ZM38.3889 3.86407H38.2449C38.2129 3.94407 38.1809 4.00007 38.1489 4.03207C38.1169 4.06407 38.1009 4.09607 38.1009 4.12807C38.1009 4.16007 38.1329 4.19207 38.1969 4.22407C38.2769 4.25607 38.3409 4.28807 38.3889 4.32007V3.86407ZM36.3489 7.39207C36.3969 7.28007 36.5249 7.09607 36.7329 6.84007C37.0689 6.36007 37.3249 5.96807 37.5009 5.66407C37.6769 5.34407 37.7649 5.07207 37.7649 4.84807C37.7649 4.72007 37.7249 4.61607 37.6449 4.53607C37.1329 5.35207 36.6289 6.34407 36.1329 7.51207H36.2529L36.3489 7.39207ZM41.5809 13.0801C41.4369 13.3201 41.3169 13.5361 41.2209 13.7281C41.1409 13.9041 41.0689 14.0481 41.0049 14.1601C40.7809 14.7041 40.5249 15.1681 40.2369 15.5521C40.1409 15.6801 39.9649 15.9201 39.7089 16.2721C39.4529 16.6241 39.2369 16.9761 39.0609 17.3281C38.9009 17.6641 38.7889 18.0161 38.7249 18.3841C39.1409 18.4001 39.5969 18.3441 40.0929 18.2161C40.5889 18.0881 41.2449 17.8881 42.0609 17.6161C43.0689 17.2801 43.7249 17.0801 44.0289 17.0161V16.7041C43.8689 16.5601 43.6609 16.2721 43.4049 15.8401C43.1489 15.4081 42.9969 15.0881 42.9489 14.8801C42.9969 14.8481 43.0529 14.8321 43.1169 14.8321C43.1809 14.8321 43.2609 14.8481 43.3569 14.8801C43.4529 14.9121 43.5569 14.9281 43.6689 14.9281C44.0049 15.2161 44.3889 15.5041 44.8209 15.7921C45.2529 16.0801 45.5409 16.2721 45.6849 16.3681C46.3409 16.7841 46.8929 17.1761 47.3409 17.5441C47.8049 17.8961 48.2289 18.2961 48.6129 18.7441L48.6369 19.8721C48.6369 20.3521 48.5969 20.7441 48.5169 21.0481C48.4529 21.3521 48.3089 21.5361 48.0849 21.6001C47.9249 21.7121 47.7169 21.7681 47.4609 21.7681C47.3649 21.7681 47.2049 21.7521 46.9809 21.7201C46.7249 21.4481 46.5009 21.1601 46.3089 20.8561C46.1329 20.5361 45.8929 20.0881 45.5889 19.5121C45.5089 19.3681 45.4369 19.2321 45.3729 19.1041C45.3089 18.9761 45.2449 18.8561 45.1809 18.7441C45.0209 18.4561 44.9089 18.2801 44.8449 18.2161C44.7809 18.1361 44.6129 17.9921 44.3409 17.7841C44.1809 17.9761 43.9489 18.1521 43.6449 18.3121C43.3409 18.4561 42.9489 18.6241 42.4689 18.8161C41.9889 19.0081 41.6209 19.1761 41.3649 19.3201L40.7409 19.5361C40.6289 19.5841 40.4369 19.6561 40.1649 19.7521C39.9089 19.8481 39.7009 19.9441 39.5409 20.0401C39.0129 20.3441 38.2769 20.6321 37.3329 20.9041C36.6449 21.1121 36.0849 21.3121 35.6529 21.5041C35.2209 21.6961 34.8369 21.9681 34.5009 22.3201C34.4529 22.3041 34.4049 22.2881 34.3569 22.2721C34.3249 22.2561 34.2849 22.2401 34.2369 22.2241C34.0929 21.7281 33.9009 21.2961 33.6609 20.9281C33.4849 20.6401 33.3489 20.3761 33.2529 20.1361C33.1729 19.8961 33.1169 19.5921 33.0849 19.2241L33.3489 19.2001C33.5569 19.0881 33.8209 19.0161 34.1409 18.9841C34.4769 18.9361 34.6769 18.9041 34.7409 18.8881C35.1729 18.8401 35.4929 18.7921 35.7009 18.7441C35.9089 18.6961 36.0929 18.6161 36.2529 18.5041L36.7809 17.9761C36.8929 17.8801 36.9729 17.7681 37.0209 17.6401C37.0849 17.4961 37.1889 17.2321 37.3329 16.8481C37.7009 15.9681 38.0689 14.7441 38.4369 13.1761C38.8209 11.5921 39.0289 10.2881 39.0609 9.26407C38.9649 9.18407 38.9169 9.10407 38.9169 9.02407C38.9169 8.91207 38.9969 8.74407 39.1569 8.52007C39.2529 8.34407 39.3249 8.20807 39.3729 8.11207C39.4209 8.00007 39.4289 7.88807 39.3969 7.77607C39.6049 7.69607 39.7809 7.65607 39.9249 7.65607C40.1009 7.65607 40.3249 7.69607 40.5969 7.77607L41.2929 7.92007C41.8369 8.35207 42.4209 8.66407 43.0449 8.85607C43.1409 8.95207 43.2209 9.06407 43.2849 9.19207C43.3649 9.32007 43.4289 9.41607 43.4769 9.48007C43.3809 9.92807 43.2209 10.3601 42.9969 10.7761C42.7729 11.1921 42.4609 11.7121 42.0609 12.3361L41.5809 13.0801ZM42.7569 9.07207C42.7249 9.05607 42.7009 9.04007 42.6849 9.02407C42.6689 9.00807 42.6369 8.98407 42.5889 8.95207C42.6049 8.96807 42.6129 8.99207 42.6129 9.02407C42.6289 9.04007 42.6769 9.05607 42.7569 9.07207ZM40.8369 9.72007C40.7889 9.81607 40.6689 10.0321 40.4769 10.3681C40.3009 10.6881 40.2129 10.9761 40.2129 11.2321C40.2129 11.3281 40.2209 11.4001 40.2369 11.4481V11.5441H40.4049C40.4209 11.5281 40.5249 11.4001 40.7169 11.1601C40.7489 11.1281 40.8209 11.0401 40.9329 10.8961C41.0609 10.7361 41.1409 10.5921 41.1729 10.4641C41.2209 10.3361 41.2289 10.2161 41.1969 10.1041C41.1329 9.94407 41.0929 9.85607 41.0769 9.84007C41.0609 9.82407 40.9809 9.78407 40.8369 9.72007ZM39.3969 15.0241C40.1969 13.9361 40.5969 13.1601 40.5969 12.6961C40.5969 12.6001 40.5729 12.5041 40.5249 12.4081L40.1649 12.9121C39.7809 13.4241 39.4769 13.8801 39.2529 14.2801C39.0449 14.6641 38.9169 15.0721 38.8689 15.5041H39.0609L39.3969 15.0241ZM44.1489 16.1761C44.2289 16.2721 44.3089 16.4161 44.3889 16.6081C44.4689 16.7841 44.5489 16.9361 44.6289 17.0641H44.7249V16.8961C44.6929 16.8641 44.6609 16.7841 44.6289 16.6561C44.6129 16.5281 44.5889 16.4161 44.5569 16.3201L44.1489 16.1761ZM42.2049 17.8321C42.2049 17.9121 42.2129 17.9521 42.2289 17.9521C42.2449 17.9361 42.2929 17.9281 42.3729 17.9281V17.8321H42.2049ZM39.4929 19.0801H39.6609C39.9009 18.8721 40.1729 18.7441 40.4769 18.6961V18.5761H40.1649C40.0529 18.7041 39.8129 18.8161 39.4449 18.9121H39.4929V19.0801ZM34.1169 20.0401C34.2129 19.9761 34.3249 19.8881 34.4529 19.7761C34.5809 19.6641 34.6929 19.5841 34.7889 19.5361V19.4401H34.5969C34.3889 19.5841 34.0929 19.6561 33.7089 19.6561L33.8289 19.9201C33.8929 19.9681 33.9889 20.0081 34.1169 20.0401ZM46.7649 20.4721C46.8129 20.5201 46.8609 20.5521 46.9089 20.5681C46.9729 20.5841 47.0209 20.6001 47.0529 20.6161C47.0049 20.5521 46.9569 20.4881 46.9089 20.4241C46.8609 20.3441 46.8129 20.2721 46.7649 20.2081V20.4721ZM37.1889 20.7361H37.0929C37.0929 20.7361 37.0289 20.7521 36.9009 20.7841V20.8801H37.0929L37.1889 20.7361Z" fill="#F3E9D8"/>
<path d="M76.1409 18.2641C76.1409 18.3601 76.1329 18.4561 76.1169 18.5521C76.1009 18.6481 76.0929 18.7441 76.0929 18.8401C75.8689 18.9201 75.6209 18.9601 75.3489 18.9601C75.1889 18.9601 74.9489 18.9441 74.6289 18.9121C74.2449 18.8481 73.9409 18.8241 73.7169 18.8401L67.8129 18.9361C67.8129 19.0161 67.8289 19.2161 67.8609 19.5361C67.9089 20.4961 67.9329 21.0401 67.9329 21.1681C67.9329 22.3841 67.7489 23.0241 67.3809 23.0881C67.2209 23.0561 66.9009 23.1201 66.4209 23.2801C66.0369 23.4081 65.7569 23.4801 65.5809 23.4961L65.5089 23.4241C65.5089 23.0081 65.5009 22.6241 65.4849 22.2721C65.4689 21.9361 65.4529 21.6401 65.4369 21.3841L65.3649 18.9841C64.5649 19.0001 63.3809 19.0081 61.8129 19.0081C60.2769 19.0081 59.1169 19.0161 58.3329 19.0321C58.1569 18.9841 58.0209 18.8721 57.9249 18.6961C57.8289 18.5041 57.7329 18.2721 57.6369 18.0001H57.9249C58.0369 18.0641 58.1649 18.0961 58.3089 18.0961C58.4209 18.0961 58.5489 18.0801 58.6929 18.0481C58.8529 18.0161 58.9729 17.9921 59.0529 17.9761C59.3249 17.8961 59.5649 17.8561 59.7729 17.8561C59.8529 17.8561 59.9169 17.8641 59.9649 17.8801C60.3329 17.9441 60.8609 17.9761 61.5489 17.9761C62.3809 17.9761 63.1729 17.9521 63.9249 17.9041L64.9089 17.8801C65.0529 17.6561 65.1489 17.4481 65.1969 17.2561C65.2449 17.0641 65.2689 16.8321 65.2689 16.5601L65.2449 15.7201H63.5649C63.3729 15.7201 63.1329 15.7201 62.8449 15.7201C62.5729 15.7041 62.2449 15.7041 61.8609 15.7201C61.3489 15.9601 60.8289 16.0801 60.3009 16.0801C60.1249 16.0801 59.9969 16.0721 59.9169 16.0561C59.6449 15.5281 59.5089 14.4321 59.5089 12.7681L59.5329 10.8001C59.5489 10.4481 59.5569 9.99207 59.5569 9.43207V8.68807C59.5569 8.32007 59.5809 8.01607 59.6289 7.77607C59.6769 7.53607 59.7809 7.37607 59.9409 7.29607C60.0529 7.23207 60.1969 7.20007 60.3729 7.20007C60.6769 7.20007 60.9889 7.25607 61.3089 7.36807C61.6289 7.48007 61.8129 7.54407 61.8609 7.56007C62.0529 7.60807 62.2689 7.63207 62.5089 7.63207C62.7969 7.63207 63.2609 7.58407 63.9009 7.48807C64.5889 7.40807 64.9889 7.36807 65.1009 7.36807C65.0849 7.19207 65.0929 6.89607 65.1249 6.48007L65.1489 5.73607C65.1489 5.25607 65.1009 4.90407 65.0049 4.68007C63.7569 4.80807 62.4129 4.91207 60.9729 4.99207C60.7489 5.07207 60.4049 5.16007 59.9409 5.25607C59.4769 5.33607 59.2049 5.36807 59.1249 5.35207C58.9649 5.28807 58.8449 5.20007 58.7649 5.08807C58.7009 4.96007 58.6609 4.77607 58.6449 4.53607C58.7889 4.48807 58.9409 4.44807 59.1009 4.41607C59.4369 4.40007 59.9729 4.34407 60.7089 4.24807C61.1889 4.12007 61.6769 4.04007 62.1729 4.00807C62.6689 3.97607 63.3729 3.95207 64.2849 3.93607H64.9809C65.0289 3.79207 65.0529 3.54407 65.0529 3.19207C65.0529 2.87207 65.0449 2.63207 65.0289 2.47207L65.0049 1.77607C64.9409 1.71207 64.9089 1.59207 64.9089 1.41607L64.9329 0.912067C65.1249 0.816067 65.4529 0.768066 65.9169 0.768066L66.8529 0.912067C66.9649 0.928067 67.1169 0.952067 67.3089 0.984066C67.5009 1.00007 67.6689 1.02407 67.8129 1.05607C67.8289 1.08807 67.8529 1.13607 67.8849 1.20007C67.9169 1.26407 67.9329 1.38407 67.9329 1.56007C67.6929 1.68807 67.5249 1.84807 67.4289 2.04007C67.3489 2.23207 67.3089 2.48007 67.3089 2.78407C67.3089 2.92807 67.3249 3.27207 67.3569 3.81607L71.4609 3.74407C71.5889 3.50407 71.7729 3.31207 72.0129 3.16807C72.2529 3.00807 72.5329 2.92807 72.8529 2.92807C72.9329 3.00807 73.0769 3.13607 73.2849 3.31207C73.5089 3.47207 73.6849 3.65607 73.8129 3.86407C73.9409 4.05607 74.0129 4.28007 74.0289 4.53607C73.9009 4.53607 73.7649 4.55207 73.6209 4.58407C73.4769 4.60007 73.3409 4.60807 73.2129 4.60807C73.1329 4.56007 72.9889 4.53607 72.7809 4.53607C72.6529 4.53607 72.5249 4.54407 72.3969 4.56007C72.2689 4.57607 72.1409 4.58407 72.0129 4.58407L71.7729 4.56007C71.5329 4.51207 71.2689 4.48807 70.9809 4.48807C70.5169 4.48807 69.9809 4.52807 69.3729 4.60807C69.2449 4.62407 68.9729 4.64807 68.5569 4.68007C68.1409 4.71207 67.7889 4.72007 67.5009 4.70407L67.5489 7.20007C68.1409 7.20007 68.5729 7.20807 68.8449 7.22407C69.0369 7.22407 69.2769 7.23207 69.5649 7.24807C69.8529 7.24807 70.1889 7.24007 70.5729 7.22407C70.6049 7.17607 70.6769 7.04007 70.7889 6.81607C70.9009 6.59207 71.0289 6.40807 71.1729 6.26407C71.3329 6.12007 71.5009 6.04007 71.6769 6.02407C71.7569 5.96007 71.8929 5.92807 72.0849 5.92807C72.3409 5.92807 72.6209 5.99207 72.9249 6.12007C73.2289 6.23207 73.4209 6.35207 73.5009 6.48007V8.25607C73.5009 10.1921 73.4929 11.6481 73.4769 12.6241C73.4929 12.7361 73.5089 12.9361 73.5249 13.2241C73.5569 13.5121 73.5729 13.7521 73.5729 13.9441C73.5729 14.2641 73.5249 14.4961 73.4289 14.6401C73.2049 15.4241 72.6449 15.8161 71.7489 15.8161C71.4929 15.8161 71.1889 15.7761 70.8369 15.6961L67.7649 15.7441L67.7889 17.6881C68.3489 17.6721 69.2529 17.6801 70.5009 17.7121L72.7569 17.7361L74.0769 17.7121C74.2049 17.4721 74.3569 17.2961 74.5329 17.1841C74.7249 17.0561 74.9809 16.9921 75.3009 16.9921C75.7169 17.5521 75.9969 17.9441 76.1409 18.1681V18.2641ZM65.7489 1.84807C65.7489 2.16807 65.7729 2.36007 65.8209 2.42407C65.8849 2.24807 65.9329 2.04007 65.9649 1.80007C66.0129 1.56007 66.0449 1.38407 66.0609 1.27207H65.7489V1.84807ZM66.5649 3.79207L66.6849 3.76807L66.7329 3.69607C66.7169 3.66407 66.6929 3.60807 66.6609 3.52807C66.6289 3.43207 66.5889 3.36007 66.5409 3.31207L66.5649 3.79207ZM66.8529 3.69607H66.9249V3.57607H66.8529V3.69607ZM66.8289 4.72807C66.7809 5.35207 66.7569 5.76807 66.7569 5.97607C66.7569 6.50407 66.8129 6.88007 66.9249 7.10407C66.9089 6.80007 66.9009 6.52807 66.9009 6.28807C66.9169 6.04807 66.9249 5.84807 66.9249 5.68807C66.9409 5.48007 66.9489 5.16007 66.9489 4.72807H66.8289ZM72.6369 6.67207C72.6849 6.86407 72.7249 7.04007 72.7569 7.20007C72.8049 7.36007 72.8529 7.52007 72.9009 7.68007L72.9249 6.81607L72.8769 6.74407V6.67207H72.6369ZM70.3329 7.72807C70.2209 7.80807 69.9969 7.84807 69.6609 7.84807C69.4049 7.84807 69.1729 7.84007 68.9649 7.82407C68.7729 7.80807 68.6049 7.79207 68.4609 7.77607C68.1889 7.72807 67.9489 7.70407 67.7409 7.70407L67.7889 10.5361L70.9089 10.4641L70.8849 8.92807C70.8849 8.46407 70.9089 8.06407 70.9569 7.72807H70.3329ZM66.7809 9.50407C66.6849 9.71207 66.6529 10.0881 66.6849 10.6321L66.9249 10.6081L66.8769 7.84807H66.7569L66.7809 9.50407ZM61.0929 8.68807C61.1569 8.56007 61.1809 8.43207 61.1649 8.30407C61.1649 8.17607 61.1649 8.08007 61.1649 8.01607L61.0929 7.94407H60.8289C60.8289 8.05607 60.8449 8.20807 60.8769 8.40007C60.9249 8.57607 60.9569 8.72007 60.9729 8.83207H61.0929V8.68807ZM61.7889 8.42407C61.7089 8.58407 61.6689 8.83207 61.6689 9.16807C61.6689 9.53607 61.7249 10.0881 61.8369 10.8241C62.2849 10.8241 62.7889 10.8081 63.3489 10.7761C63.9089 10.7441 64.3089 10.7201 64.5489 10.7041L65.2209 10.6561H65.1489L65.1009 7.99207C64.6689 8.00807 64.1329 8.06407 63.4929 8.16007C63.4289 8.17607 63.3169 8.18407 63.1569 8.18407C63.0129 8.18407 62.8689 8.17607 62.7249 8.16007C62.5809 8.14407 62.4369 8.13607 62.2929 8.13607C62.1009 8.13607 61.9569 8.15207 61.8609 8.18407C61.8609 8.23207 61.8449 8.28007 61.8129 8.32807C61.7969 8.37607 61.7889 8.40807 61.7889 8.42407ZM67.8129 11.4001C67.7329 11.6721 67.6929 12.0641 67.6929 12.5761C67.6929 12.8481 67.7089 13.2561 67.7409 13.8001C67.7729 14.3441 67.7889 14.7201 67.7889 14.9281C68.0449 14.9921 68.3809 15.0241 68.7969 15.0241C68.9249 15.0241 69.5169 15.0001 70.5729 14.9521C70.5729 14.8881 70.5809 14.8401 70.5969 14.8081C70.6129 14.7601 70.6209 14.7281 70.6209 14.7121C70.5889 14.6001 70.5729 14.4161 70.5729 14.1601C70.5729 13.8081 70.6129 13.3761 70.6929 12.8641C70.7889 12.1601 70.8289 11.6561 70.8129 11.3521L67.8129 11.4001ZM65.2929 14.9281L65.2449 11.4001C64.4929 11.4001 63.9249 11.3921 63.5409 11.3761C63.3489 11.3761 63.1089 11.3761 62.8209 11.3761C62.5489 11.3601 62.2209 11.3601 61.8369 11.3761V12.2641C61.8369 12.4241 61.8449 12.8241 61.8609 13.4641C61.8769 14.1041 61.9169 14.6241 61.9809 15.0241L65.2209 14.9761L65.2929 14.9281ZM66.7329 11.5441C66.6689 11.6721 66.6369 11.9761 66.6369 12.4561C66.6369 13.0161 66.6689 13.6801 66.7329 14.4481L66.7569 14.9521L66.8049 15.0241H67.0449C67.0289 14.8001 67.0209 14.6001 67.0209 14.4241C67.0369 14.2321 67.0449 14.0721 67.0449 13.9441C67.0609 13.7521 67.0689 13.4721 67.0689 13.1041C67.0689 12.3361 67.0049 11.8001 66.8769 11.4961C66.7809 11.5281 66.7329 11.5441 66.7329 11.5441ZM72.3009 13.2721C72.2689 13.4321 72.2209 13.5441 72.1569 13.6081C72.0929 13.6561 71.9969 13.6961 71.8689 13.7281C71.7569 13.7441 71.6769 13.7841 71.6289 13.8481H71.6769C71.7569 13.8801 71.9889 13.8961 72.3729 13.8961C72.3729 13.5601 72.3489 13.3521 72.3009 13.2721ZM72.0609 14.7361C72.1409 14.7681 72.1969 14.7841 72.2289 14.7841C72.2769 14.7841 72.3329 14.7601 72.3969 14.7121L72.0609 14.7361ZM61.0929 15.1201C61.1409 15.0241 61.1569 14.8961 61.1409 14.7361H61.0209C60.9729 14.8001 60.9169 14.8321 60.8529 14.8321C60.8049 14.8321 60.7569 14.8241 60.7089 14.8081C60.6609 14.7921 60.6209 14.7761 60.5889 14.7601V15.3841H60.7089C60.7409 15.3361 60.7969 15.2961 60.8769 15.2641C60.9729 15.2321 61.0449 15.1841 61.0929 15.1201ZM66.8049 15.7681C66.8369 16.0081 66.8689 16.3681 66.9009 16.8481L66.9729 17.6401H67.0929L67.0689 15.7681H66.8049ZM74.8929 17.9521C74.8929 17.9521 74.9329 17.9681 75.0129 18.0001C74.9809 17.9841 74.9569 17.9761 74.9409 17.9761C74.9249 17.9761 74.9089 17.9681 74.8929 17.9521ZM67.0689 19.0081C67.0689 19.3601 67.0929 19.5761 67.1409 19.6561C67.1409 19.5761 67.1329 19.4641 67.1169 19.3201C67.1009 19.1601 67.0849 19.0561 67.0689 19.0081ZM65.9889 22.8001C66.0849 22.8001 66.2129 22.7601 66.3729 22.6801L66.3489 21.8401C66.2529 21.8401 66.1889 21.8321 66.1569 21.8161C66.1249 21.8161 66.0849 21.8241 66.0369 21.8401C65.8929 22.0001 65.8369 22.2401 65.8689 22.5601C65.8689 22.6401 65.9089 22.7201 65.9889 22.8001Z" fill="#F3E9D8"/>
</svg>
