<svg width="32" height="32" viewBox="0 0 32 32" fill="none" xmlns="http://www.w3.org/2000/svg">
<path d="M0 5C0 2.23858 2.23858 0 5 0H27C29.7614 0 32 2.23858 32 5V27C32 29.7614 29.7614 32 27 32H5C2.23858 32 0 29.7614 0 27V5Z" fill="#262626"/>
<path d="M12.1001 10.75C12.1001 10.5429 12.268 10.375 12.4751 10.375H19.5251C19.7322 10.375 19.9001 10.5429 19.9001 10.75C19.9001 10.9571 19.7322 11.125 19.5251 11.125H12.4751C12.268 11.125 12.1001 10.9571 12.1001 10.75Z" fill="#F3E9D8"/>
<path fill-rule="evenodd" clip-rule="evenodd" d="M11.3501 12.625C10.9359 12.625 10.6001 12.9608 10.6001 13.375V16.375C10.6001 16.7892 10.9359 17.125 11.3501 17.125H20.6501C21.0643 17.125 21.4001 16.7892 21.4001 16.375V13.375C21.4001 12.9608 21.0643 12.625 20.6501 12.625H11.3501ZM20.6501 13.375H11.3501V16.375H13.3481L12.1998 15.712C12.0204 15.6084 11.9589 15.3791 12.0625 15.1997C12.1661 15.0204 12.3954 14.9589 12.5748 15.0625L14.5233 16.1875C14.5998 16.2316 14.6549 16.2987 14.6848 16.375H17.8481L16.6998 15.712C16.5204 15.6084 16.4589 15.3791 16.5625 15.1997C16.6661 15.0204 16.8954 14.9589 17.0748 15.0625L19.0233 16.1875C19.0998 16.2316 19.1549 16.2987 19.1848 16.375H20.6501V13.375Z" fill="#F3E9D8"/>
<path fill-rule="evenodd" clip-rule="evenodd" d="M11.9126 17.875C11.1877 17.875 10.6001 18.4626 10.6001 19.1875C10.6001 19.9123 11.1877 20.5 11.9126 20.5C12.6375 20.5 13.2251 19.9123 13.2251 19.1875C13.2251 18.4626 12.6375 17.875 11.9126 17.875ZM11.3501 19.1875C11.3501 19.4981 11.6019 19.75 11.9126 19.75C12.2233 19.75 12.4751 19.4981 12.4751 19.1875C12.4751 18.8768 12.2233 18.625 11.9126 18.625C11.6019 18.625 11.3501 18.8768 11.3501 19.1875Z" fill="#F3E9D8"/>
<path fill-rule="evenodd" clip-rule="evenodd" d="M18.7749 19.1875C18.7749 18.4626 19.3625 17.875 20.0874 17.875C20.8123 17.875 21.3999 18.4626 21.3999 19.1875C21.3999 19.9123 20.8123 20.5 20.0874 20.5C19.3625 20.5 18.7749 19.9123 18.7749 19.1875ZM20.0874 19.75C19.7767 19.75 19.5249 19.4981 19.5249 19.1875C19.5249 18.8768 19.7767 18.625 20.0874 18.625C20.3981 18.625 20.6499 18.8768 20.6499 19.1875C20.6499 19.4981 20.3981 19.75 20.0874 19.75Z" fill="#F3E9D8"/>
<path fill-rule="evenodd" clip-rule="evenodd" d="M8.875 11.4444C8.875 10.779 9.15669 10.1289 9.70862 9.75722C10.2384 9.40042 10.7436 9.166 11.5 8.875C13.1309 8.24761 14.2526 8.125 16 8.125C17.7474 8.125 18.8691 8.24761 20.5 8.875C21.2564 9.16601 21.7616 9.40043 22.2914 9.75723C22.8433 10.1289 23.125 10.779 23.125 11.4445V20.1249C23.125 21.1877 22.3881 22.0784 21.3975 22.314C21.3991 22.3341 21.3999 22.3544 21.3999 22.375V23.125C21.3999 23.5392 21.0641 23.875 20.6499 23.875H19.5249C19.1107 23.875 18.7749 23.5392 18.7749 23.125V22.375C18.7749 22.375 18.7749 22.375 18.7749 22.375L13.2251 22.3749V23.125C13.2251 23.5392 12.8893 23.875 12.4751 23.875H11.3501C10.9359 23.875 10.6001 23.5392 10.6001 23.125V22.375C10.6001 22.3544 10.6009 22.3341 10.6025 22.314C9.61185 22.0784 8.875 21.1877 8.875 20.1249V11.4444ZM22.375 11.4445V20.1249C22.375 20.9534 21.7034 21.6249 20.875 21.6249H11.125C10.2966 21.6249 9.625 20.9534 9.625 20.1249V11.4444C9.625 10.9769 9.82208 10.585 10.1275 10.3793C10.5905 10.0676 11.0367 9.85683 11.7693 9.57499C13.2883 8.99061 14.3121 8.875 16 8.875C17.6879 8.875 18.7117 8.99061 20.2307 9.57499C20.9633 9.85683 21.4095 10.0676 21.8725 10.3793C22.1779 10.585 22.375 10.9769 22.375 11.4445ZM11.3501 22.375L11.3501 23.125H12.4751V22.375H11.3501ZM19.5249 23.125V22.375H20.6499V23.125H19.5249Z" fill="#F3E9D8"/>
<path fill-rule="evenodd" clip-rule="evenodd" d="M5.64706 0H26.3529C29.4717 0 32 2.52827 32 5.64706V26.3529C32 29.4717 29.4717 32 26.3529 32H5.64706C2.52827 32 0 29.4717 0 26.3529V5.64706C0 2.52827 2.52827 0 5.64706 0ZM5.64706 0.941176C3.04807 0.941176 0.941176 3.04807 0.941176 5.64706V26.3529C0.941176 28.9519 3.04807 31.0588 5.64706 31.0588H26.3529C28.9519 31.0588 31.0588 28.9519 31.0588 26.3529V5.64706C31.0588 3.04807 28.9519 0.941176 26.3529 0.941176H5.64706Z" fill="#111111"/>
</svg>
