<svg width="22" height="22" viewBox="0 0 22 22" fill="none" xmlns="http://www.w3.org/2000/svg">
<path d="M22 11C22 17.0751 17.0751 22 11 22C4.92487 22 0 17.0751 0 11C0 4.92487 4.92487 0 11 0C17.0751 0 22 4.92487 22 11Z" fill="#EDBA55" fill-opacity="0.3"/>
<path d="M18.8574 11C18.8574 15.3394 15.3396 18.8571 11.0002 18.8571C6.66083 18.8571 3.14307 15.3394 3.14307 11C3.14307 6.66062 6.66083 3.14285 11.0002 3.14285C15.3396 3.14285 18.8574 6.66062 18.8574 11Z" fill="#EDBA55" fill-opacity="0.3"/>
<path d="M14 11C14 12.6569 12.6569 14 11 14C9.34315 14 8 12.6569 8 11C8 9.34315 9.34315 8 11 8C12.6569 8 14 9.34315 14 11Z" fill="#EDBA55"/>
<path fill-rule="evenodd" clip-rule="evenodd" d="M16 11C16 13.7614 13.7614 16 11 16C8.23858 16 6 13.7614 6 11C6 8.23858 8.23858 6 11 6C13.7614 6 16 8.23858 16 11ZM11 14C12.6569 14 14 12.6569 14 11C14 9.34315 12.6569 8 11 8C9.34315 8 8 9.34315 8 11C8 12.6569 9.34315 14 11 14Z" fill="#FCFAF2"/>
</svg>
