<svg width="32" height="32" viewBox="0 0 32 32" fill="none" xmlns="http://www.w3.org/2000/svg">
<path d="M2 9.5C2 5.35786 5.35786 2 9.5 2H24.5C28.6421 2 32 5.35786 32 9.5V24.5C32 28.6421 28.6421 32 24.5 32H9.5C5.35786 32 2 28.6421 2 24.5V9.5Z" fill="#F3E9D8"/>
<path d="M0 7.5C0 3.35786 3.35786 0 7.5 0H22.5C26.6421 0 30 3.35786 30 7.5V22.5C30 26.6421 26.6421 30 22.5 30H7.5C3.35786 30 0 26.6421 0 22.5V7.5Z" fill="#EDBA55"/>
<path fill-rule="evenodd" clip-rule="evenodd" d="M22.5 0.9375H7.5C3.87563 0.9375 0.9375 3.87563 0.9375 7.5V22.5C0.9375 26.1244 3.87563 29.0625 7.5 29.0625H22.5C26.1244 29.0625 29.0625 26.1244 29.0625 22.5V7.5C29.0625 3.87563 26.1244 0.9375 22.5 0.9375ZM7.5 0C3.35786 0 0 3.35786 0 7.5V22.5C0 26.6421 3.35786 30 7.5 30H22.5C26.6421 30 30 26.6421 30 22.5V7.5C30 3.35786 26.6421 0 22.5 0H7.5Z" fill="#F3E9D8"/>
<path fill-rule="evenodd" clip-rule="evenodd" d="M19.3056 12.6667H10.6944V15.3333H19.3056V12.6667ZM10.6944 12C10.3109 12 10 12.2985 10 12.6667V15.3333C10 15.7015 10.3109 16 10.6944 16H19.3056C19.6891 16 20 15.7015 20 15.3333V12.6667C20 12.2985 19.6891 12 19.3056 12H10.6944Z" fill="#333333"/>
<path d="M11 9.5C11 9.22386 11.1722 9 11.3846 9H18.6154C18.8278 9 19 9.22386 19 9.5C19 9.77614 18.8278 10 18.6154 10H11.3846C11.1722 10 11 9.77614 11 9.5Z" fill="#333333"/>
<path fill-rule="evenodd" clip-rule="evenodd" d="M21.2632 18.7895V10.2612C21.2632 9.80185 21.0695 9.41688 20.7694 9.21478C20.3146 8.90849 19.8763 8.70145 19.1565 8.42456C17.6641 7.85043 16.6582 7.73685 15 7.73685C13.3418 7.73685 12.3359 7.85043 10.8435 8.42456C10.1237 8.70145 9.68539 8.90848 9.23057 9.21477C8.93047 9.41687 8.73684 9.80184 8.73684 10.2612V18.7895C8.73684 19.6034 9.39663 20.2632 10.2105 20.2632H19.7895C20.6034 20.2632 21.2632 19.6034 21.2632 18.7895ZM8.81899 8.60359C8.27675 8.96875 8 9.60749 8 10.2612V18.7895C8 20.0103 8.98969 21 10.2105 21H19.7895C21.0103 21 22 20.0103 22 18.7895V10.2612C22 9.6075 21.7233 8.96876 21.181 8.6036C20.6605 8.25306 20.1642 8.02275 19.4211 7.73685C17.8188 7.12046 16.7167 7 15 7C13.2833 7 12.1812 7.12046 10.5789 7.73685C9.83577 8.02274 9.33952 8.25305 8.81899 8.60359Z" fill="#333333"/>
<path d="M11.0625 14.1997C11.1661 14.0204 11.3954 13.9589 11.5748 14.0625L13.5233 15.1875C13.7027 15.291 13.7641 15.5204 13.6606 15.6997C13.557 15.8791 13.3277 15.9405 13.1483 15.837L11.1998 14.712C11.0204 14.6084 10.9589 14.3791 11.0625 14.1997Z" fill="#333333"/>
<path d="M15.5625 14.1997C15.6661 14.0204 15.8954 13.9589 16.0748 14.0625L18.0233 15.1875C18.2027 15.291 18.2641 15.5204 18.1606 15.6997C18.057 15.8791 17.8277 15.9405 17.6483 15.837L15.6998 14.712C15.5204 14.6084 15.4589 14.3791 15.5625 14.1997Z" fill="#333333"/>
<path fill-rule="evenodd" clip-rule="evenodd" d="M10.5714 18C10.5714 18.2367 10.7633 18.4286 11 18.4286C11.2367 18.4286 11.4286 18.2367 11.4286 18C11.4286 17.7633 11.2367 17.5714 11 17.5714C10.7633 17.5714 10.5714 17.7633 10.5714 18ZM11 17C10.4477 17 10 17.4477 10 18C10 18.5523 10.4477 19 11 19C11.5523 19 12 18.5523 12 18C12 17.4477 11.5523 17 11 17Z" fill="#333333"/>
<path fill-rule="evenodd" clip-rule="evenodd" d="M18.5714 18C18.5714 18.2367 18.7633 18.4286 19 18.4286C19.2367 18.4286 19.4286 18.2367 19.4286 18C19.4286 17.7633 19.2367 17.5714 19 17.5714C18.7633 17.5714 18.5714 17.7633 18.5714 18ZM19 17C18.4477 17 18 17.4477 18 18C18 18.5523 18.4477 19 19 19C19.5523 19 20 18.5523 20 18C20 17.4477 19.5523 17 19 17Z" fill="#333333"/>
<path fill-rule="evenodd" clip-rule="evenodd" d="M11.4286 21.6667H10.5714V22.3333H11.4286V21.6667ZM10.5714 21C10.2558 21 10 21.2985 10 21.6667V22.3333C10 22.7015 10.2558 23 10.5714 23H11.4286C11.7442 23 12 22.7015 12 22.3333V21.6667C12 21.2985 11.7442 21 11.4286 21H10.5714Z" fill="#333333"/>
<path fill-rule="evenodd" clip-rule="evenodd" d="M19.4286 21.6667H18.5714V22.3333H19.4286V21.6667ZM18.5714 21C18.2558 21 18 21.2985 18 21.6667V22.3333C18 22.7015 18.2558 23 18.5714 23H19.4286C19.7442 23 20 22.7015 20 22.3333V21.6667C20 21.2985 19.7442 21 19.4286 21H18.5714Z" fill="#333333"/>
</svg>
