<svg width="64" height="64" viewBox="0 0 64 64" fill="none" xmlns="http://www.w3.org/2000/svg">
<path d="M8.01 46.462C8.106 46.51 8.25 46.588 8.442 46.696C8.646 46.792 8.808 46.894 8.928 47.002C9.06 47.098 9.162 47.218 9.234 47.362C9.606 47.914 9.918 48.562 10.17 49.306C10.422 50.05 10.548 50.794 10.548 51.538C10.548 52.006 10.482 52.474 10.35 52.942V53.644C10.302 53.764 10.206 53.908 10.062 54.076C9.918 54.244 9.822 54.352 9.774 54.4C9.666 54.544 9.528 54.772 9.36 55.084C9.216 55.36 9.078 55.588 8.946 55.768C8.826 55.948 8.682 56.104 8.514 56.236C8.082 56.62 7.584 56.92 7.02 57.136C6.456 57.352 5.694 57.592 4.734 57.856C3.894 58.108 3.162 58.234 2.538 58.234C2.082 58.234 1.65 58.174 1.242 58.054C1.242 58.006 1.23 57.952 1.206 57.892C1.194 57.832 1.188 57.778 1.188 57.73C1.272 57.73 1.434 57.682 1.674 57.586C1.914 57.478 2.04 57.4 2.052 57.352V49.396C2.052 49.072 2.058 48.688 2.07 48.244C2.082 47.8 2.094 47.458 2.106 47.218C2.13 46.906 2.142 46.672 2.142 46.516C2.058 46.48 1.95 46.444 1.818 46.408L1.764 46.39C1.704 46.39 1.614 46.408 1.494 46.444C1.374 46.48 1.29 46.486 1.242 46.462C1.098 46.414 1.002 46.348 0.954 46.264C0.918 46.168 0.9 46.006 0.9 45.778C1.032 45.742 1.194 45.724 1.386 45.724L2.016 45.742C2.052 45.73 2.148 45.724 2.304 45.724C2.46 45.712 2.568 45.688 2.628 45.652C2.796 45.664 3.126 45.67 3.618 45.67C4.41 45.67 5.04 45.694 5.508 45.742C5.616 45.742 5.898 45.712 6.354 45.652C6.558 45.676 6.744 45.73 6.912 45.814C7.08 45.898 7.29 46.018 7.542 46.174C7.782 46.33 7.938 46.426 8.01 46.462ZM3.348 46.93C3.408 46.87 3.462 46.78 3.51 46.66C3.558 46.528 3.57 46.426 3.546 46.354C3.546 46.354 3.51 46.342 3.438 46.318C3.402 46.426 3.372 46.528 3.348 46.624C3.324 46.72 3.294 46.822 3.258 46.93L3.312 46.984L3.348 46.93ZM5.85 46.408C5.946 46.408 6.03 46.42 6.102 46.444C6.174 46.456 6.246 46.462 6.318 46.462V46.354L6.264 46.318H5.886L5.85 46.408ZM8.424 52.258C8.46 52.09 8.478 51.928 8.478 51.772C8.478 51.424 8.424 51.088 8.316 50.764C8.22 50.428 8.16 50.224 8.136 50.152C8.112 50.068 8.088 49.996 8.064 49.936C8.04 49.876 8.022 49.816 8.01 49.756C7.83 49.156 7.656 48.694 7.488 48.37C7.32 48.046 7.038 47.764 6.642 47.524C6.486 47.476 6.342 47.428 6.21 47.38C6.09 47.32 5.982 47.272 5.886 47.236C5.826 47.2 5.688 47.128 5.472 47.02C5.268 46.912 5.064 46.822 4.86 46.75C4.668 46.678 4.47 46.63 4.266 46.606C4.266 46.654 4.254 46.708 4.23 46.768C4.218 46.828 4.212 46.882 4.212 46.93C4.212 49.162 4.206 50.836 4.194 51.952L4.176 56.974H4.104C4.08 56.926 4.05 56.89 4.014 56.866V57.352C4.59 57.328 5.082 57.166 5.49 56.866C5.91 56.554 6.294 56.152 6.642 55.66C7.146 54.988 7.53 54.418 7.794 53.95C8.07 53.47 8.28 52.906 8.424 52.258ZM8.01 47.992C7.878 47.644 7.596 47.356 7.164 47.128C6.744 46.9 6.27 46.726 5.742 46.606C5.922 46.774 6.264 46.954 6.768 47.146C7.14 47.29 7.374 47.398 7.47 47.47C7.566 47.518 7.668 47.632 7.776 47.812C7.884 47.98 7.962 48.076 8.01 48.1C8.01 48.076 8.01 48.064 8.01 48.064C8.022 48.052 8.022 48.028 8.01 47.992ZM9.486 50.062H9.684C9.66 49.618 9.498 49.138 9.198 48.622C8.898 48.106 8.532 47.662 8.1 47.29C7.668 46.906 7.254 46.69 6.858 46.642L6.804 46.696C6.84 46.72 6.858 46.756 6.858 46.804C7.398 47.008 7.908 47.428 8.388 48.064C8.88 48.688 9.246 49.336 9.486 50.008V50.062ZM2.52 47.362C2.52 47.53 2.544 47.644 2.592 47.704C2.592 47.548 2.568 47.434 2.52 47.362ZM3.15 47.992C3.234 47.86 3.276 47.728 3.276 47.596C3.276 47.524 3.27 47.47 3.258 47.434H3.15C3.126 47.518 3.108 47.626 3.096 47.758C3.084 47.89 3.09 47.968 3.114 47.992V48.028L3.15 47.992ZM2.97 50.764C2.982 50.704 2.994 50.632 3.006 50.548C3.018 50.452 3.036 50.35 3.06 50.242H2.862C2.862 50.338 2.868 50.434 2.88 50.53C2.904 50.626 2.916 50.722 2.916 50.818L2.97 50.764ZM2.862 51.106C2.886 51.07 2.898 51.04 2.898 51.016C2.898 50.992 2.886 50.962 2.862 50.926C2.862 50.974 2.85 51.022 2.826 51.07C2.814 51.106 2.808 51.148 2.808 51.196H2.862V51.106ZM3.924 55.282C3.912 55.354 3.906 55.48 3.906 55.66C3.906 55.972 3.942 56.2 4.014 56.344C4.038 56.056 4.05 55.876 4.05 55.804C4.05 55.576 4.008 55.402 3.924 55.282Z" fill="#F3E9D8"/>
<path d="M21.0194 57.244C21.0554 57.34 21.0974 57.388 21.1454 57.388H21.1994L21.1454 57.424C21.0374 57.532 20.7254 57.634 20.2094 57.73C19.7054 57.826 19.2314 57.874 18.7874 57.874C18.3794 57.874 18.1274 57.832 18.0314 57.748C17.8274 57.208 17.6954 56.908 17.6354 56.848C17.0234 57.208 16.3514 57.388 15.6194 57.388C14.9474 57.388 14.3834 57.232 13.9274 56.92C13.4714 56.596 13.2434 56.14 13.2434 55.552C13.2434 55.324 13.2794 55.084 13.3514 54.832C13.6514 53.812 14.1974 52.99 14.9894 52.366C15.7814 51.73 16.8314 51.442 18.1394 51.502L18.2114 51.466C18.2354 51.058 18.2474 50.752 18.2474 50.548C18.2474 50.164 18.2054 49.87 18.1214 49.666C18.0854 49.654 17.8034 49.546 17.2754 49.342C17.0594 49.306 16.8554 49.288 16.6634 49.288C16.2674 49.288 15.9254 49.354 15.6374 49.486C15.3494 49.618 15.0074 49.81 14.6114 50.062C14.1914 50.326 13.9034 50.494 13.7474 50.566L13.3874 50.404C13.8914 49.9 14.4314 49.468 15.0074 49.108C15.5834 48.748 16.2494 48.454 17.0054 48.226C17.1374 48.178 17.2874 48.154 17.4554 48.154C17.5754 48.154 17.7674 48.178 18.0314 48.226C18.0794 48.238 18.1454 48.25 18.2294 48.262C18.3134 48.274 18.4154 48.28 18.5354 48.28C18.7034 48.412 18.9494 48.568 19.2734 48.748C19.5734 48.928 19.8014 49.078 19.9574 49.198C20.1254 49.318 20.2574 49.48 20.3534 49.684C20.4734 49.972 20.5334 50.308 20.5334 50.692C20.5334 50.956 20.5034 51.25 20.4434 51.574C20.3954 51.898 20.3414 52.198 20.2814 52.474C20.2214 52.738 20.1914 52.876 20.1914 52.888C20.1074 53.26 20.0654 53.662 20.0654 54.094C20.0654 54.466 20.1134 55.048 20.2094 55.84C20.2814 56.476 20.3234 56.938 20.3354 57.226L21.0194 57.244ZM19.0574 51.448C19.0454 51.472 19.0214 51.526 18.9854 51.61C18.9494 51.694 18.9434 51.802 18.9674 51.934L19.0574 51.448ZM18.1214 55.876C18.1694 55.792 18.1934 55.666 18.1934 55.498C18.1934 55.366 18.1814 55.21 18.1574 55.03C18.1454 54.85 18.1334 54.718 18.1214 54.634C18.1094 54.514 18.1034 54.34 18.1034 54.112V53.428C18.1034 52.9 18.0494 52.492 17.9414 52.204H17.6534C17.4854 52.324 17.3594 52.408 17.2754 52.456C17.0834 52.576 16.9394 52.672 16.8434 52.744C16.3394 53.14 15.9734 53.56 15.7454 54.004C15.5294 54.436 15.4214 54.94 15.4214 55.516C15.4214 55.852 15.4574 56.23 15.5294 56.65C15.5774 56.674 15.6314 56.71 15.6914 56.758C15.7514 56.794 15.8174 56.818 15.8894 56.83C15.9614 56.842 16.0694 56.848 16.2134 56.848C16.2854 56.812 16.5014 56.728 16.8614 56.596C17.2094 56.488 17.4914 56.38 17.7074 56.272C17.9234 56.164 18.0614 56.032 18.1214 55.876ZM13.9454 54.328H13.8194C13.8434 54.388 13.8554 54.43 13.8554 54.454C13.8554 54.466 13.8614 54.478 13.8734 54.49C13.8974 54.49 13.9274 54.502 13.9634 54.526L13.9454 54.328ZM14.5754 55.444C14.5394 55.696 14.5214 55.858 14.5214 55.93C14.5214 56.098 14.5454 56.212 14.5934 56.272L14.6114 55.714C14.6114 55.57 14.5994 55.48 14.5754 55.444ZM19.5254 55.444H19.4714C19.4714 55.54 19.4654 55.642 19.4534 55.75C19.4414 55.846 19.4354 55.936 19.4354 56.02C19.4354 56.128 19.4534 56.236 19.4894 56.344H19.5614L19.5254 55.444ZM13.9814 56.398H13.7474C13.7834 56.422 13.8134 56.446 13.8374 56.47C13.8734 56.482 13.9274 56.494 13.9994 56.506L13.9814 56.398ZM19.5794 56.578H19.5074V56.668H19.5794V56.578ZM14.8274 57.028C14.7434 57.028 14.6114 56.998 14.4314 56.938C14.4554 56.986 14.4794 57.022 14.5034 57.046C14.5274 57.07 14.5394 57.094 14.5394 57.118H14.8274V57.028ZM18.4994 57.01C18.5594 57.07 18.5954 57.112 18.6074 57.136C18.6314 57.148 18.6554 57.124 18.6794 57.064H18.6254C18.6134 57.052 18.6014 57.046 18.5894 57.046C18.5774 57.046 18.5474 57.034 18.4994 57.01Z" fill="#F3E9D8"/>
<path d="M28.5157 51.358C29.0197 51.346 29.5057 51.496 29.9737 51.808C30.4537 52.108 30.8437 52.504 31.1437 52.996C31.4437 53.476 31.5937 53.968 31.5937 54.472C31.5937 54.772 31.5457 55.036 31.4497 55.264C31.3297 55.564 31.1437 55.894 30.8917 56.254C30.6517 56.602 30.4177 56.866 30.1897 57.046C30.0337 57.142 29.7817 57.214 29.4337 57.262C29.2777 57.274 29.0977 57.31 28.8937 57.37C28.2217 57.562 27.5857 57.724 26.9857 57.856C26.3857 57.976 25.7977 58.036 25.2217 58.036C24.5857 58.036 24.0577 57.946 23.6377 57.766C23.6137 57.706 23.5837 57.592 23.5477 57.424C23.6077 57.388 23.7277 57.37 23.9077 57.37C23.9557 57.346 24.0877 57.334 24.3037 57.334C24.3037 56.05 24.3157 54.148 24.3397 51.628C24.3637 49.084 24.3757 47.182 24.3757 45.922H24.2497C24.0937 45.922 23.9677 45.91 23.8717 45.886C23.8477 45.85 23.8177 45.802 23.7817 45.742C23.7457 45.67 23.7157 45.58 23.6917 45.472H23.7817C23.8777 45.412 24.0097 45.382 24.1777 45.382C24.3337 45.382 24.5017 45.4 24.6817 45.436C24.7417 45.448 24.8137 45.46 24.8977 45.472C24.9937 45.484 25.1017 45.49 25.2217 45.49C25.3297 45.49 25.4077 45.484 25.4557 45.472C25.7437 45.424 26.0137 45.4 26.2657 45.4C26.6737 45.4 26.9857 45.436 27.2017 45.508C27.2977 45.544 27.3817 45.562 27.4537 45.562C27.5497 45.562 27.6817 45.538 27.8497 45.49C28.0177 45.442 28.1317 45.418 28.1917 45.418L28.2817 45.508L28.6597 45.58C28.9117 45.604 29.1157 45.652 29.2717 45.724C29.4877 45.808 29.6797 45.934 29.8477 46.102C30.0157 46.27 30.1957 46.474 30.3877 46.714C30.6757 47.038 30.8197 47.2 30.8197 47.2C30.8317 47.32 30.8377 47.482 30.8377 47.686C30.8377 48.118 30.7777 48.484 30.6577 48.784C30.5497 49.072 30.4117 49.306 30.2437 49.486C30.0877 49.666 29.8717 49.864 29.5957 50.08C29.3077 50.32 29.0797 50.524 28.9117 50.692C28.7557 50.86 28.6237 51.082 28.5157 51.358ZM29.1637 46.264C29.0437 46.132 28.8277 46.066 28.5157 46.066C28.5157 46.126 28.5157 46.168 28.5157 46.192C28.5277 46.216 28.5457 46.24 28.5697 46.264C28.6537 46.336 28.7737 46.426 28.9297 46.534C29.0857 46.642 29.1637 46.69 29.1637 46.678C29.1877 46.582 29.1997 46.474 29.1997 46.354H29.2717L29.1637 46.264ZM26.1757 47.794C26.0437 48.646 25.9777 49.516 25.9777 50.404C25.9777 50.872 26.0077 51.274 26.0677 51.61H26.1757C26.3197 51.646 26.5297 51.598 26.8057 51.466C27.0817 51.322 27.2797 51.184 27.3997 51.052C27.7117 50.752 28.0117 50.32 28.2997 49.756C28.5997 49.192 28.7497 48.634 28.7497 48.082C28.7497 47.77 28.6897 47.476 28.5697 47.2C28.4377 46.864 28.2277 46.636 27.9397 46.516C27.6637 46.396 27.2857 46.336 26.8057 46.336L26.2297 46.354C26.2177 46.378 26.1997 46.402 26.1757 46.426C26.1517 46.438 26.1277 46.474 26.1037 46.534C26.0677 46.618 26.0497 46.708 26.0497 46.804C26.0497 46.9 26.0737 47.044 26.1217 47.236C26.1697 47.476 26.1877 47.662 26.1757 47.794ZM29.7397 46.678H29.5957C29.5957 46.69 29.5957 46.72 29.5957 46.768C29.6077 46.804 29.6377 46.834 29.6857 46.858V46.804C29.6977 46.792 29.7037 46.786 29.7037 46.786C29.7037 46.774 29.7157 46.75 29.7397 46.714V46.678ZM25.6357 47.236C25.6117 47.212 25.5817 47.2 25.5457 47.2C25.5577 47.248 25.5637 47.284 25.5637 47.308C25.5637 47.332 25.5877 47.356 25.6357 47.38V47.236ZM25.5457 47.524C25.5097 47.644 25.4917 47.764 25.4917 47.884C25.4917 47.968 25.5097 48.046 25.5457 48.118C25.5457 48.034 25.5517 47.962 25.5637 47.902C25.5757 47.83 25.5817 47.764 25.5817 47.704C25.5817 47.62 25.5697 47.56 25.5457 47.524ZM25.5457 51.61C25.6057 51.394 25.6357 51.004 25.6357 50.44C25.6357 49.828 25.6057 49.132 25.5457 48.352H25.4917V48.388C25.3597 48.604 25.2937 49.708 25.2937 51.7C25.3777 51.7 25.4257 51.7 25.4377 51.7C25.4617 51.7 25.4977 51.67 25.5457 51.61ZM29.1097 52.078C28.9777 51.994 28.7497 51.928 28.4257 51.88C28.4257 51.928 28.4197 51.97 28.4077 52.006C28.3957 52.03 28.3897 52.054 28.3897 52.078C28.4617 52.09 28.5517 52.108 28.6597 52.132C28.7677 52.156 28.8577 52.168 28.9297 52.168C29.0137 52.168 29.1037 52.15 29.1997 52.114C29.1997 52.114 29.1697 52.102 29.1097 52.078ZM28.8577 55.804C29.2057 55.324 29.3797 54.784 29.3797 54.184C29.3797 53.788 29.2957 53.428 29.1277 53.104C28.9597 52.768 28.7257 52.51 28.4257 52.33C28.3177 52.27 28.1797 52.228 28.0117 52.204C27.8557 52.18 27.6517 52.162 27.3997 52.15C27.3397 52.15 27.2257 52.144 27.0577 52.132C26.9017 52.12 26.7697 52.102 26.6617 52.078C26.5897 52.162 26.4757 52.216 26.3197 52.24C26.1757 52.264 26.0737 52.282 26.0137 52.294V52.384C25.9537 52.468 25.9237 52.6 25.9237 52.78C25.9237 52.864 25.9357 53.002 25.9597 53.194C25.9837 53.41 25.9957 53.578 25.9957 53.698C25.9957 53.806 25.9897 53.884 25.9777 53.932C25.9177 54.196 25.8877 54.574 25.8877 55.066C25.8877 55.762 25.9477 56.434 26.0677 57.082C26.1757 57.118 26.2957 57.148 26.4277 57.172C26.5357 57.088 26.6797 57.028 26.8597 56.992C27.0517 56.956 27.1957 56.926 27.2917 56.902C27.6877 56.71 28.0057 56.536 28.2457 56.38C28.4977 56.224 28.7017 56.032 28.8577 55.804ZM25.0417 57.37C25.1017 57.274 25.1437 57.178 25.1677 57.082C25.1317 57.022 25.1137 56.926 25.1137 56.794L25.1317 56.434C25.1317 56.29 25.0837 56.182 24.9877 56.11C24.9877 56.542 24.9517 56.95 24.8797 57.334L24.9517 57.37H25.0417Z" fill="#F3E9D8"/>
<path d="M40.8794 56.812C40.9514 56.776 41.0174 56.758 41.0774 56.758C41.0894 56.758 41.1854 56.776 41.3654 56.812V57.028L41.3114 57.082L40.2134 57.262C39.7454 57.358 39.3554 57.424 39.0434 57.46C39.0074 57.412 38.9534 57.37 38.8814 57.334C38.8094 57.286 38.7554 57.22 38.7194 57.136C38.6714 57.052 38.6354 56.926 38.6114 56.758C38.5994 56.71 38.5814 56.65 38.5574 56.578C38.5454 56.494 38.5274 56.428 38.5034 56.38V56.488C38.3474 56.644 38.1854 56.824 38.0174 57.028C37.6934 57.388 37.5314 57.568 37.5314 57.568C37.2314 57.58 36.9434 57.568 36.6674 57.532C36.4034 57.484 36.0974 57.418 35.7494 57.334L35.3714 57.244C35.2754 57.1 35.1974 56.992 35.1374 56.92C35.0414 56.788 34.9514 56.65 34.8674 56.506C34.7834 56.35 34.7234 56.2 34.6874 56.056V54.562C34.6874 53.098 34.7714 51.58 34.9394 50.008L34.9034 49.972C34.8314 49.984 34.7474 50.008 34.6514 50.044C34.5674 50.068 34.4714 50.08 34.3634 50.08C34.3634 50.02 34.3514 49.948 34.3274 49.864C34.3034 49.768 34.2914 49.696 34.2914 49.648C34.7834 49.432 35.2154 49.264 35.5874 49.144C35.9594 49.024 36.3614 48.94 36.7934 48.892C36.7934 48.94 36.7994 48.988 36.8114 49.036C36.8234 49.072 36.8294 49.108 36.8294 49.144C36.7574 49.264 36.7094 49.39 36.6854 49.522C36.6734 49.654 36.6674 49.828 36.6674 50.044C36.6674 50.248 36.6494 50.47 36.6134 50.71C36.5654 51.118 36.5414 51.658 36.5414 52.33C36.5414 53.206 36.5654 54.094 36.6134 54.994C36.6734 55.894 36.7454 56.488 36.8294 56.776C36.9374 56.776 37.0334 56.782 37.1174 56.794C37.2134 56.806 37.2974 56.812 37.3694 56.812C37.8014 56.452 38.1254 55.978 38.3414 55.39C38.5574 54.802 38.7014 54.178 38.7734 53.518C38.8454 52.858 38.9054 52.006 38.9534 50.962C38.9654 50.578 38.9954 50.044 39.0434 49.36H38.9894C38.9054 49.456 38.8154 49.534 38.7194 49.594C38.6354 49.642 38.5154 49.672 38.3594 49.684C38.3114 49.588 38.2754 49.468 38.2514 49.324C38.2514 49.324 38.2634 49.288 38.2874 49.216C38.3594 49.192 38.4614 49.144 38.5934 49.072C38.7254 48.988 38.8274 48.928 38.8994 48.892C39.2234 48.7 39.4874 48.556 39.6914 48.46C39.9074 48.352 40.0994 48.298 40.2674 48.298C40.3514 48.298 40.4294 48.316 40.5014 48.352C40.6094 48.388 40.6694 48.448 40.6814 48.532C40.7054 48.604 40.7174 48.694 40.7174 48.802C40.7174 48.91 40.7174 48.994 40.7174 49.054C40.5974 49.282 40.5374 49.612 40.5374 50.044L40.5554 50.926C40.5554 51.166 40.5374 51.406 40.5014 51.646C40.4774 51.838 40.4654 51.988 40.4654 52.096C40.4654 52.348 40.4714 52.54 40.4834 52.672L40.5014 53.302C40.5014 53.626 40.4834 53.86 40.4474 54.004L40.3934 54.598C40.3694 54.802 40.3394 55.066 40.3034 55.39C40.2794 55.714 40.2374 56.092 40.1774 56.524C40.2014 56.548 40.2494 56.59 40.3214 56.65C40.3934 56.71 40.4714 56.752 40.5554 56.776C40.6394 56.8 40.7474 56.812 40.8794 56.812ZM39.8174 49H39.6914C39.6554 49.108 39.6374 49.174 39.6374 49.198C39.6374 49.306 39.6974 49.384 39.8174 49.432V49ZM35.6054 49.684C35.6294 49.708 35.6474 49.72 35.6594 49.72C35.6834 49.72 35.7014 49.732 35.7134 49.756C35.7014 49.732 35.6894 49.72 35.6774 49.72C35.6654 49.72 35.6414 49.708 35.6054 49.684Z" fill="#F3E9D8"/>
<path d="M48.4064 52.51C48.6584 52.618 48.9284 52.714 49.2164 52.798C49.5524 52.906 49.7984 53.002 49.9544 53.086C50.1104 53.17 50.2544 53.326 50.3864 53.554C50.5184 53.77 50.6384 54.106 50.7464 54.562C50.7824 54.742 50.8004 54.904 50.8004 55.048C50.8004 55.516 50.6384 55.906 50.3144 56.218C49.9904 56.518 49.6184 56.746 49.1984 56.902C48.7784 57.058 48.2504 57.22 47.6144 57.388C47.5424 57.412 47.3864 57.454 47.1464 57.514C47.0024 57.55 46.8344 57.568 46.6424 57.568C46.2944 57.568 45.9284 57.52 45.5444 57.424C45.1724 57.316 44.9264 57.214 44.8064 57.118C44.8064 57.298 44.7944 57.424 44.7704 57.496C44.7584 57.556 44.7044 57.61 44.6084 57.658C44.5724 57.682 44.5364 57.694 44.5004 57.694C44.4644 57.694 44.4224 57.706 44.3744 57.73C44.2904 57.562 44.2484 57.25 44.2484 56.794L44.2664 55.714C44.2544 55.702 44.2484 55.63 44.2484 55.498C44.2484 55.306 44.2604 55.102 44.2844 54.886C44.3084 54.658 44.3384 54.514 44.3744 54.454C44.4584 54.43 44.5484 54.418 44.6444 54.418C44.7404 54.622 44.8244 54.856 44.8964 55.12C45.0404 55.552 45.1604 55.882 45.2564 56.11C45.3644 56.338 45.5024 56.518 45.6704 56.65C45.9464 56.854 46.2584 56.956 46.6064 56.956C47.0264 56.956 47.4404 56.848 47.8484 56.632C48.2684 56.404 48.5984 56.206 48.8384 56.038C49.0784 55.858 49.2224 55.75 49.2704 55.714C49.2464 55.654 49.2284 55.618 49.2164 55.606C49.2164 55.582 49.2164 55.522 49.2164 55.426C49.3004 55.354 49.3604 55.282 49.3964 55.21C49.4324 55.138 49.4624 55.03 49.4864 54.886C49.3664 54.766 49.2344 54.604 49.0904 54.4C48.9344 54.196 48.8024 54.04 48.6944 53.932C48.5864 53.824 48.4544 53.746 48.2984 53.698C48.0464 53.614 47.6744 53.548 47.1824 53.5C46.9184 53.476 46.6964 53.452 46.5164 53.428C46.3484 53.392 46.1804 53.332 46.0124 53.248C45.5324 53.008 45.1244 52.642 44.7884 52.15C44.4524 51.658 44.2844 51.13 44.2844 50.566C44.2844 50.014 44.4404 49.51 44.7524 49.054C44.8724 48.874 45.0164 48.73 45.1844 48.622C45.3644 48.514 45.5984 48.394 45.8864 48.262C46.2104 48.13 46.4624 47.998 46.6424 47.866C46.8584 47.866 47.3264 47.896 48.0464 47.956C48.5264 48.004 48.8564 48.028 49.0364 48.028C49.2404 48.028 49.4324 48.01 49.6124 47.974C49.6244 48.01 49.6424 48.088 49.6664 48.208C49.7024 48.316 49.7204 48.454 49.7204 48.622C49.7804 48.73 49.8104 48.946 49.8104 49.27C49.8104 49.618 49.7804 49.954 49.7204 50.278C49.6604 50.29 49.6064 50.302 49.5584 50.314C49.5224 50.326 49.4624 50.344 49.3784 50.368L49.2704 49.99C49.2104 49.846 49.1804 49.552 49.1804 49.108C49.0724 49.072 48.9584 49.006 48.8384 48.91C48.7184 48.814 48.6224 48.736 48.5504 48.676C47.8544 48.628 47.3204 48.79 46.9484 49.162C46.5764 49.522 46.3904 50.002 46.3904 50.602C46.3904 50.902 46.4444 51.226 46.5524 51.574L47.0564 51.844C47.8484 52.24 48.2984 52.462 48.4064 52.51ZM46.0664 49.378C46.1144 49.33 46.1804 49.276 46.2644 49.216C46.3484 49.156 46.4084 49.102 46.4444 49.054V49.018H46.2104C46.1624 49.066 46.1084 49.12 46.0484 49.18C46.0004 49.228 45.9524 49.294 45.9044 49.378H46.0664ZM47.1824 52.888C47.6744 52.888 47.9864 52.846 48.1184 52.762C47.7824 52.726 47.3864 52.642 46.9304 52.51V52.546C46.9544 52.558 46.9904 52.576 47.0384 52.6C47.0984 52.624 47.1344 52.66 47.1464 52.708C47.1584 52.756 47.1704 52.816 47.1824 52.888ZM49.6484 53.518C49.5404 53.35 49.4384 53.23 49.3424 53.158C49.2584 53.086 49.1264 53.014 48.9464 52.942C49.0064 53.002 49.1144 53.092 49.2704 53.212C49.4264 53.332 49.5404 53.47 49.6124 53.626H49.6484V53.518ZM44.0684 55.228C44.0924 55.144 44.1044 55.066 44.1044 54.994C44.1284 55.03 44.1404 55.066 44.1404 55.102C44.1404 55.138 44.1464 55.18 44.1584 55.228H44.0684Z" fill="#F3E9D8"/>
<path d="M62.2069 11.4698C62.069 10.9721 62 9.56946 62 7.26193L62.0345 3.12195C62.0575 2.35278 62.069 1.35737 62.069 0.135742C62.3218 0.135742 62.5402 0.113119 62.7241 0.0678743C62.908 0.0226293 63.069 -6.02913e-09 63.2069 0C63.3908 8.03888e-09 63.5287 0.0452514 63.6207 0.135742C63.7126 0.316725 63.7816 0.475081 63.8276 0.610819C63.8506 0.746554 63.8736 0.950162 63.8966 1.22164C63.8966 1.49311 63.931 1.83245 64 2.23966C63.7241 3.23507 63.5862 5.58784 63.5862 9.29799C63.5862 9.7052 63.6207 12.1485 63.6897 16.6278L63.7586 21.0392L63.7586 63.7285H63.3793C63.2874 63.7738 63.1954 63.8416 63.1034 63.9321C63.0115 63.9774 62.9195 64 62.8276 64C62.7126 64 62.6092 63.9774 62.5172 63.9321C62.4253 63.8416 62.3218 63.7738 62.2069 63.7285L62.2069 11.4698Z" fill="#F3E9D8"/>
<path d="M30.226 62.4752C30.7154 62.33 31.3367 62.2376 32.0898 62.198C32.8428 62.1584 33.8406 62.1386 35.0831 62.1386C36.4386 62.1386 37.4552 62.132 38.1329 62.1188C38.4341 62.1848 38.9989 62.2178 39.8273 62.2178C40.7686 62.2178 41.6534 62.198 42.4817 62.1584L44.515 62.1188C46.5858 62.1188 48.3931 62.1122 49.9369 62.099C51.4806 62.0858 52.7796 62.0726 53.8339 62.0594C56.959 62.0198 60.0088 62 62.9833 62V62.7525C62.7198 62.7525 62.9518 62.8812 62.5 63H62.4983C62.7242 63.132 62.9456 63.368 62.9832 63.5C63.0209 63.632 62.9833 63.6832 62.9833 64C57.5614 64 51.9136 63.9802 46.4917 63.9406C44.6844 63.9274 42.4253 63.9142 39.7143 63.901C37.0034 63.8878 33.8406 63.8812 30.226 63.8812C30.226 63.7624 30.1883 63.571 30.113 63.3069C30.0377 63.0165 30.0001 62.8053 30.0001 62.6733C30.0754 62.6337 30.113 62.6073 30.113 62.5941C30.113 62.5809 30.1507 62.5413 30.226 62.4752Z" fill="#F3E9D8"/>
<path d="M1.87097 19.176C1.87097 21.5962 1.89247 25.2264 1.93548 30.0667C1.97849 34.85 2 38.4233 2 40.7865H1.70968C1.55914 40.9288 1.31183 41 0.967742 41C0.645161 41 0.32258 40.9288 0 40.7865V34.8927C0.279569 34.2948 0.419355 33.2413 0.419355 31.7323C0.419355 31.2483 0.365591 29.9385 0.258065 27.8031C0.172043 26.4365 0.129031 25.5681 0.129031 25.1979V0.170833C0.236558 0.11389 0.301075 0.0854173 0.322581 0.0854173C0.365592 0.0854173 0.419354 0.0569455 0.48387 7.54962e-08C0.612902 7.54962e-08 0.795699 0.0284719 1.03226 0.0854173C1.29032 0.142361 1.51613 0.170833 1.70968 0.170833L1.87097 19.176Z" fill="#F3E9D8"/>
<path d="M19.6502 1.90196C20.6338 1.75817 22.2211 1.68627 24.4119 1.68627C26.0214 1.68627 27.5192 1.70588 28.9053 1.7451C30.6043 1.77124 31.722 1.78431 32.2585 1.78431H63.5111V1.70588C63.5111 1.45752 64.1147 1.15686 63.9806 0.803922C63.8464 0.464052 63.6899 0.196079 63.5111 7.54962e-08C58.3247 7.54962e-08 49.6509 0.0392146 38.831 0.117646C36.6849 0.130718 33.1751 0.150327 28.3017 0.176471C23.4282 0.202615 19.2702 0.215686 15.8275 0.215686C9.61273 0.215686 4.47104 0.169935 0.402393 0.0784314C0.402393 0.326797 0.335328 0.614379 0.201197 0.941176C0.156486 1.0719 0.111776 1.20915 0.0670655 1.35294C0.0223552 1.49673 0 1.64052 0 1.78431C1.65428 1.92811 4.18042 2 7.57841 2C9.76922 2 11.9377 1.98039 14.0838 1.94118C16.7664 1.91503 18.6219 1.90196 19.6502 1.90196ZM45.6716 1.58824C46.0293 1.54902 46.2529 1.52941 46.3423 1.52941C46.4764 1.52941 46.7 1.54902 47.013 1.58824H45.6716Z" fill="#F3E9D8"/>
</svg>
